<svg width="100" height="89" viewBox="0 0 100 89" fill="none" xmlns="http://www.w3.org/2000/svg">
<path d="M21.6763 5.9267C33.1411 14.5337 45.4727 31.9852 50.0003 41.3506C54.5282 31.9859 66.8592 14.5336 78.3243 5.9267C86.5966 -0.283776 100 -5.08909 100 10.2017C100 13.2555 98.2491 35.855 97.2223 39.5239C93.6528 52.2797 80.6458 55.5331 69.0759 53.564C89.2999 57.0061 94.4447 68.4074 83.3339 79.8087C62.2323 101.462 53.0048 74.3758 50.6393 67.4353C50.2058 66.163 50.003 65.5677 50 66.0739C49.997 65.5677 49.7942 66.163 49.3607 67.4353C46.9963 74.3758 37.7689 101.463 16.6661 79.8087C5.55514 68.4074 10.6998 57.0054 30.9241 53.564C19.3539 55.5331 6.34669 52.2797 2.77774 39.5239C1.75082 35.8546 0 13.2551 0 10.2017C0 -5.08909 13.4037 -0.283776 21.6757 5.9267H21.6763Z" fill="#757575"/>
</svg>
