<svg width="21" height="20" viewBox="0 0 21 20" fill="none" xmlns="http://www.w3.org/2000/svg">
<path d="M17.4419 3.52317C16.1473 2.91744 14.763 2.47723 13.3157 2.22656C13.138 2.5479 12.9304 2.98012 12.7872 3.32394C11.2487 3.09258 9.72445 3.09258 8.2143 3.32394C8.07116 2.98012 7.8588 2.5479 7.67947 2.22656C6.23067 2.47723 4.8448 2.91906 3.55016 3.52638C0.938869 7.47238 0.230991 11.3204 0.584931 15.1137C2.31688 16.4071 3.99534 17.1928 5.64548 17.7069C6.05291 17.1462 6.41628 16.5501 6.72931 15.9219C6.13313 15.6954 5.56211 15.4158 5.02256 15.0912C5.1657 14.9852 5.30571 14.8743 5.44098 14.7603C8.73183 16.2995 12.3074 16.2995 15.5589 14.7603C15.6958 14.8743 15.8358 14.9852 15.9774 15.0912C15.4362 15.4174 14.8637 15.6969 14.2675 15.9235C14.5805 16.5501 14.9423 17.1478 15.3513 17.7085C17.003 17.1944 18.683 16.4087 20.415 15.1137C20.8303 10.7163 19.7056 6.90361 17.4419 3.52317ZM7.17765 12.7809C6.18977 12.7809 5.37963 11.8586 5.37963 10.7355C5.37963 9.61247 6.17247 8.68864 7.17765 8.68864C8.18285 8.68864 8.99297 9.61086 8.97567 10.7355C8.97723 11.8586 8.18285 12.7809 7.17765 12.7809ZM13.8223 12.7809C12.8344 12.7809 12.0243 11.8586 12.0243 10.7355C12.0243 9.61247 12.8171 8.68864 13.8223 8.68864C14.8275 8.68864 15.6376 9.61086 15.6203 10.7355C15.6203 11.8586 14.8275 12.7809 13.8223 12.7809Z" fill="#5865F2"/>
<path d="M13.3584 1.98047C14.6441 2.20316 15.881 2.57314 17.0508 3.07422L17.5479 3.29688L17.6113 3.32617L17.6494 3.38379C19.9427 6.80847 21.0852 10.6787 20.6641 15.1377L20.6533 15.248L20.5645 15.3135C18.8079 16.6269 17.1022 17.4254 15.4258 17.9473L15.2549 18L15.1494 17.8555C14.732 17.2832 14.363 16.6737 14.0439 16.0352L13.9199 15.7881L14.1787 15.6895C14.6463 15.5117 15.0982 15.2989 15.5322 15.0576C15.5293 15.0553 15.5263 15.0531 15.5234 15.0508C12.2889 16.5342 8.74885 16.5335 5.47852 15.0508C5.47548 15.0533 5.47277 15.0561 5.46973 15.0586C5.9018 15.2985 6.35189 15.5112 6.81836 15.6885L7.07617 15.7861L6.95312 16.0332C6.63383 16.674 6.26301 17.2819 5.84766 17.8535L5.74219 17.999L5.57129 17.9453C3.89649 17.4235 2.19194 16.626 0.435547 15.3145L0.34668 15.248L0.335938 15.1367C-0.0228373 11.2911 0.696832 7.38562 3.3418 3.38867L3.38086 3.33008L3.44434 3.2998C4.75873 2.68326 6.16584 2.23497 7.63672 1.98047L7.81152 1.9502L7.89746 2.10449C8.05128 2.38013 8.22726 2.73524 8.36719 3.05078C9.77731 2.85276 11.1986 2.85375 12.6318 3.05176C12.7703 2.73691 12.9436 2.38215 13.0967 2.10547L13.1826 1.9502L13.3584 1.98047ZM7.17773 8.93848C6.34171 8.93848 5.62997 9.71723 5.62988 10.7354C5.62988 11.7516 6.35727 12.5312 7.17773 12.5312C8.01419 12.5312 8.7268 11.7534 8.72559 10.7363V10.7314C8.74104 9.71868 8.01698 8.93853 7.17773 8.93848ZM13.8223 8.93848C12.9862 8.93849 12.2745 9.71723 12.2744 10.7354C12.2744 11.7516 13.0018 12.5312 13.8223 12.5312C14.6586 12.5312 15.3701 11.7533 15.3701 10.7354V10.7314C15.3856 9.71865 14.6615 8.93848 13.8223 8.93848Z" stroke="white" stroke-opacity="0.08" stroke-width="0.5"/>
</svg>
