<svg width="15" height="11" viewBox="0 0 15 11" fill="none" xmlns="http://www.w3.org/2000/svg">
<path d="M14.8572 4.15994C14.8157 4.125 14.4396 3.83303 13.6327 3.83303C13.4239 3.83303 13.2078 3.85424 12.9991 3.89043C12.8465 2.8024 11.9626 2.27586 11.9272 2.24841L11.7111 2.1199L11.5719 2.32577C11.3985 2.60277 11.2655 2.91595 11.1898 3.23537C11.0433 3.85424 11.1336 4.43693 11.4401 4.93478C11.0714 5.14814 10.4732 5.19805 10.3474 5.20554H0.467211C0.209615 5.20554 0.000852605 5.4189 0.000852605 5.68217C-0.0125766 6.56432 0.132702 7.44521 0.431806 8.27745C0.772419 9.18705 1.28029 9.86332 1.93465 10.2751C2.67203 10.7367 3.87577 11 5.23212 11C5.84376 11 6.45661 10.9426 7.06215 10.8291C7.90452 10.6731 8.71149 10.3736 9.45498 9.94068C10.0678 9.57759 10.6172 9.11593 11.0836 8.57566C11.8698 7.6723 12.3361 6.66289 12.6768 5.76701C12.7256 5.76701 12.7671 5.76701 12.8159 5.76701C13.6717 5.76701 14.2004 5.4189 14.4921 5.11944C14.6875 4.93478 14.8327 4.70644 14.9377 4.45066L15 4.26599L14.8572 4.15994ZM8.74201 4.91357H10.0642C10.1264 4.91357 10.1826 4.86366 10.1826 4.79254V3.58348C10.1826 3.51985 10.1338 3.46245 10.0642 3.46245H8.74201C8.67975 3.46245 8.62359 3.51236 8.62359 3.58348V4.79254C8.63092 4.86366 8.67975 4.91357 8.74201 4.91357ZM6.89856 1.45111H8.22072C8.28298 1.45111 8.33914 1.4012 8.33914 1.33008V0.12103C8.33914 0.0573956 8.28298 0 8.22072 0H6.89856C6.83629 0 6.78014 0.0499093 6.78014 0.12103V1.33008C6.78014 1.39372 6.83507 1.45111 6.89856 1.45111ZM6.89856 3.18546H8.22072C8.28298 3.18546 8.33914 3.12806 8.33914 3.06443V1.85538C8.33914 1.79174 8.28298 1.73435 8.22072 1.73435H6.89856C6.83629 1.73435 6.78014 1.78426 6.78014 1.85538V3.06443C6.78014 3.12931 6.83507 3.18546 6.89856 3.18546ZM5.06853 3.18546H6.39069C6.45295 3.18546 6.50911 3.12806 6.50911 3.06443V1.85538C6.50911 1.79174 6.46028 1.73435 6.39069 1.73435H5.06853C5.00627 1.73435 4.95011 1.78426 4.95011 1.85538V3.06443C4.95011 3.12931 4.99894 3.18546 5.06853 3.18546ZM3.21042 3.18546H4.53258C4.59485 3.18546 4.651 3.12806 4.651 3.06443V1.85538C4.651 1.79174 4.60217 1.73435 4.53258 1.73435H3.21042C3.14816 1.73435 3.092 1.78426 3.092 1.85538V3.06443C3.09933 3.12931 3.14816 3.18546 3.21042 3.18546ZM6.89856 4.91357H8.22072C8.28298 4.91357 8.33914 4.86366 8.33914 4.79254V3.58348C8.33914 3.51985 8.2903 3.46245 8.22072 3.46245H6.89856C6.83629 3.46245 6.78014 3.51236 6.78014 3.58348V4.79254C6.78014 4.86366 6.83507 4.91357 6.89856 4.91357ZM5.06853 4.91357H6.39069C6.45295 4.91357 6.50911 4.86366 6.50911 4.79254V3.58348C6.50911 3.51985 6.46028 3.46245 6.39069 3.46245H5.06853C5.00627 3.46245 4.95011 3.51236 4.95011 3.58348V4.79254C4.95011 4.86366 4.99894 4.91357 5.06853 4.91357ZM3.21042 4.91357H4.53258C4.59485 4.91357 4.651 4.86366 4.651 4.79254V3.58348C4.651 3.51985 4.60217 3.46245 4.53258 3.46245H3.21042C3.14816 3.46245 3.092 3.51236 3.092 3.58348V4.79254C3.09933 4.86366 3.14816 4.91357 3.21042 4.91357ZM1.38772 4.91357H2.70988C2.77214 4.91357 2.8283 4.86366 2.8283 4.79254V3.58348C2.8283 3.51985 2.77947 3.46245 2.70988 3.46245H1.38772C1.32546 3.46245 1.2693 3.51236 1.2693 3.58348V4.79254C1.27662 4.86366 1.32546 4.91357 1.38772 4.91357Z" fill="#0091E2"/>
</svg>
