<svg width="64" height="44" viewBox="0 0 64 44" fill="none" xmlns="http://www.w3.org/2000/svg">
<g clip-path="url(#clip0_2981_64249)">
<path d="M13.0801 42.799H40.6449V30.6272H13.0801V42.799Z" fill="white"/>
<path d="M28.6361 10.3948C27.4406 11.3481 26.5179 12.0255 25.0542 12.6022C23.7802 13.1058 22.4119 13.3109 20.8482 13.5231C19.8422 13.6634 18.7904 13.8697 17.7856 13.9368C17.3725 13.9643 16.9595 13.9907 16.5477 14.0231L0.000744533 15.221V16.4369L16.6141 14.8373L18.7685 14.6371C19.5668 14.5615 20.2769 14.4752 20.9362 14.3685C22.546 14.1119 23.9335 13.721 25.1775 13.1706C26.4672 12.6058 27.7727 11.6801 28.9863 10.6668C29.8112 9.97857 30.6058 9.11285 31.4693 8.16669V7.73142C30.4247 8.80339 29.5575 9.66087 28.6361 10.3948ZM31.4698 30.7577L0.000957867 29.9651V31.1774H31.4698V30.7577ZM19.7422 28.614L15.6724 28.5709C10.4797 28.4977 5.2929 28.4042 0.000957867 28.3059V29.5182C5.0512 29.4858 10.401 29.4474 15.6761 29.3887L19.7482 29.3287C21.12 29.3047 22.4641 29.2796 23.8226 29.2352C26.6207 29.1464 29.1278 28.951 31.4693 28.6428V28.2208C29.1182 28.4726 26.6085 28.6044 23.8081 28.6225C22.4544 28.6344 21.0981 28.6253 19.742 28.6138M23.8544 26.7084C22.9897 26.7419 22.0538 26.7587 20.9923 26.7587C20.5914 26.7587 20.1892 26.7568 19.7895 26.753L15.7053 26.7039C12.9193 26.6834 10.143 26.6786 7.538 26.6763L0.00114987 26.683V27.8941L7.55614 27.6987C10.1513 27.6352 12.9349 27.5692 15.7136 27.52L19.7942 27.466C20.9137 27.4492 22.3907 27.4156 23.8868 27.3185C25.3529 27.2238 26.6872 27.0787 27.9662 26.8761C29.117 26.6938 30.2932 26.448 31.4695 26.1494V25.7201C30.2607 25.9959 29.0591 26.2177 27.8938 26.3724C26.6222 26.5415 25.301 26.6508 23.8544 26.7084ZM23.9346 24.7362C21.8598 24.9065 19.7368 24.9065 17.6826 24.9065C17.0438 24.9065 16.4049 24.9065 15.7661 24.9113C10.5166 24.9341 5.30936 24.9773 0.000558933 25.0228V26.2351C5.05699 26.0648 10.42 25.8873 15.7842 25.7291C16.4207 25.7075 17.0571 25.6919 17.6947 25.6752C19.7597 25.6236 21.8948 25.5708 23.9912 25.3454C25.4549 25.1895 26.788 24.9605 28.0646 24.6475C29.1781 24.3753 30.3217 24.0132 31.4701 23.578V23.1319C30.2842 23.554 29.1031 23.8993 27.9522 24.1511C26.6878 24.4281 25.3739 24.6187 23.9346 24.7362ZM24.0603 22.7357C21.8455 23.0294 19.5667 23.063 17.3617 23.0954C16.8569 23.1021 16.3509 23.1098 15.8461 23.1206L0.0007616 23.4036V24.6158L15.8738 23.9372C16.3762 23.9144 16.881 23.894 17.3858 23.8748C19.6053 23.7861 21.9012 23.695 24.1461 23.3412C25.5663 23.1194 26.9333 22.7896 28.2097 22.364C29.2664 22.0126 30.3605 21.5582 31.469 21.021V20.5558C30.3036 21.0942 29.1575 21.5426 28.0574 21.8784C26.7966 22.2645 25.4528 22.5534 24.0603 22.7357ZM24.2018 20.7476C22.9954 20.967 21.6973 21.1073 20.1139 21.1876C19.5185 21.2188 18.8809 21.2404 18.0477 21.2596L0.000938667 21.744V22.9586L16.0033 22.1289L18.0768 22.0246C18.8859 21.9862 19.5477 21.9478 20.1599 21.9011C21.7649 21.7788 23.0847 21.6037 24.3142 21.3483C25.7102 21.0605 27.0651 20.6408 28.3404 20.1012C29.3681 19.6684 30.397 19.1408 31.4694 18.4993V18.0112C30.3245 18.6731 29.2353 19.2031 28.1533 19.6288C26.8962 20.1252 25.5665 20.5017 24.2018 20.7476ZM24.3809 18.768C23.1794 19.0474 21.8764 19.226 20.2811 19.3327C19.6664 19.3735 19.0046 19.4035 18.1992 19.4287L16.1039 19.503C10.8241 19.7009 5.47075 19.9287 0.000238933 20.1649V21.3796C5.43576 21.0115 10.7674 20.6529 16.1451 20.3196L18.2355 20.1949C19.0555 20.1481 19.7233 20.1013 20.338 20.045C21.9622 19.8963 23.2918 19.6793 24.5212 19.3639C25.9004 19.0114 27.2408 18.4934 28.5052 17.8267C29.4834 17.3123 30.4592 16.6936 31.4699 15.9477V15.4285C30.377 16.2115 29.3287 16.8506 28.2806 17.371C27.038 17.9886 25.7264 18.4586 24.3809 18.768ZM24.5762 16.7489C23.3831 17.0967 22.0401 17.3317 20.4702 17.4672C19.8338 17.5224 19.1479 17.5643 18.3726 17.5955L16.2568 17.6878C11.0001 17.93 5.76742 18.201 0.001024 18.5044V19.719C5.51014 19.2958 10.9083 18.8845 16.3052 18.5032L18.4138 18.3605C19.2289 18.3065 19.904 18.2489 20.5392 18.1782C22.1477 17.9995 23.5244 17.7238 24.7465 17.3352C26.1003 16.9096 27.4202 16.292 28.6689 15.5006C29.5903 14.9179 30.5129 14.2224 31.4693 13.3939V13.3723C30.4151 14.2656 29.4103 14.4646 28.4093 15.0642C27.1823 15.8028 25.8925 16.3688 24.5762 16.7489ZM24.1742 14.433C23.0728 15.0446 22.2492 15.3971 20.6768 15.5602C19.7264 15.6621 18.7494 15.7101 17.8038 15.7568C17.3473 15.7796 16.8896 15.8024 16.432 15.8312C13.5748 15.993 10.7682 16.1729 7.90481 16.3576L0.000810667 16.8864V18.1046L7.98438 17.378C10.5638 17.1478 13.5611 16.8828 16.4872 16.6453L18.615 16.4823C19.4459 16.4188 20.127 16.3516 20.7573 16.27C22.3756 16.0626 23.7583 15.7376 24.9828 15.2784C26.3016 14.7892 27.5454 14.029 28.7904 13.1345C29.9135 12.3288 31.4677 10.7399 31.469 10.7195V10.2891C30.4534 11.2723 29.8689 11.8251 28.7567 12.5528C27.4271 13.4221 25.1616 13.885 24.1737 14.433M28.7477 8.10476C27.5908 9.15875 26.3831 9.98732 25.1575 10.5676C23.9584 11.142 22.6178 11.5449 21.0564 11.7991C20.4128 11.9058 19.7123 11.9921 18.9165 12.0641L0.000213333 13.6061V14.8244L16.8151 13.0533L18.9901 12.8267C19.81 12.732 20.525 12.6264 21.1746 12.5041C22.7916 12.2008 24.1792 11.7487 25.4146 11.1204C26.6778 10.4861 27.9398 9.4309 29.1136 8.31332C29.901 7.56389 30.6594 6.59623 31.4697 5.58185V5.17536C30.5337 6.33128 29.6401 7.29303 28.7477 8.10476ZM25.4293 8.40383C24.2422 9.08131 22.8717 9.57773 21.3549 9.87751C20.7076 10.0082 20.0011 10.1137 19.1968 10.2001C18.7234 10.2516 18.2476 10.2923 17.7706 10.3331C17.5134 10.3547 17.2561 10.3775 16.9989 10.4003C11.1877 10.9183 5.40683 11.4687 0.00032 11.9891V13.2109C5.44907 12.5587 11.2711 11.8668 17.0798 11.2145C17.3382 11.1845 17.5967 11.1558 17.8551 11.1281C18.3309 11.0765 18.8079 11.0238 19.2849 10.9615C20.1121 10.8523 20.8355 10.7264 21.4961 10.5778C23.0721 10.2276 24.4947 9.67605 25.7252 8.93621C26.9473 8.20836 28.0269 7.18795 29.1887 5.94081C29.9121 5.16501 30.7163 4.06906 31.4699 3.04031V2.59186C30.5823 3.78614 29.7405 4.78974 28.9086 5.64594C27.7746 6.81264 26.6044 7.73949 25.4293 8.40383ZM0 11.5605C0 11.5605 18.9621 9.12387 19.4972 9.03765C20.3184 8.90456 21.0465 8.74868 21.7265 8.56281C23.2602 8.14554 24.672 7.50882 25.9217 6.66947C27.1209 5.87208 28.2355 4.71137 29.3406 3.43789C30.0422 2.6273 30.7801 1.57091 31.4684 0.551789V0.05896C30.6521 1.25924 29.8478 2.29412 29.0206 3.20645C27.9241 4.41871 26.7744 5.4092 25.6017 6.15249C24.3917 6.92709 23.0307 7.50386 21.5537 7.86957C20.892 8.03505 20.1843 8.16935 19.3874 8.27966C18.8632 8.35276 18.3222 8.40917 17.7993 8.46313C17.5904 8.48596 6.4e-05 10.3385 6.4e-05 10.3385L0 11.5605Z" fill="#BDBCBC"/>
<path d="M44.5741 30.1934C44.5741 30.1934 49.7609 30.3829 51.3368 30.4164C52.9127 30.45 63.983 30.8841 63.983 30.8841V31.1851L44.5739 31.1731L44.5741 30.1934ZM44.563 27.5999C44.563 27.5999 47.8622 28.1526 51.3366 28.7126C53.9414 29.1335 57.4714 29.3985 57.8481 29.4141C58.2249 29.4309 63.983 29.8158 63.983 29.8158V30.1155C63.983 30.1155 60.2985 29.9309 57.8481 29.799C55.2964 29.6611 52.7603 29.5112 51.3197 29.3649C48.0928 29.0364 44.563 28.6023 44.563 28.6023V27.5999ZM44.5741 25.0946C44.5741 25.0946 48.5954 26.3081 51.3368 27.0095C54.0781 27.711 56.5971 27.9952 57.8652 28.0779C59.1332 28.1619 63.9661 28.5456 63.9661 28.5456V28.8297C63.9661 28.8297 61.2248 28.6475 57.8483 28.4125C55.1179 28.223 52.9248 28.0228 51.3199 27.6774C49.5411 27.2949 44.5632 26.1414 44.5632 26.1414L44.5741 25.0946ZM44.5741 22.5561C44.5741 22.5561 48.5387 24.2085 51.3368 25.2889C54.0903 26.3524 56.1927 26.4424 57.8652 26.6258C58.6019 26.7062 63.9661 27.2434 63.9661 27.2434V27.5431C63.9661 27.5431 60.761 27.2937 57.8483 27.0431C54.9357 26.7925 53.6783 26.687 51.3199 25.9244C48.9325 25.1534 44.5632 23.6701 44.5632 23.6701L44.5741 22.5561ZM44.5741 20.0511C44.5741 20.0511 49.6135 22.719 51.3199 23.5523C53.2219 24.4816 54.8668 24.9277 57.8483 25.2718C60.7757 25.6123 63.9832 25.9409 63.9832 25.9409V26.2418C63.9832 26.2418 61.0172 25.9325 57.8483 25.6399C54.7072 25.3509 53.5879 25.2166 51.3199 24.237C49.2911 23.3616 44.5632 21.2202 44.5632 21.2202L44.5741 20.0511ZM44.5628 17.5905C44.5628 17.5905 50.2566 21.2814 51.3363 21.8664C52.4171 22.4504 53.6851 23.4024 57.8479 23.9205C62.0117 24.4373 63.9656 24.6711 63.9656 24.6711V24.9888C63.9656 24.9888 60.5216 24.6219 57.8308 24.3377C55.1403 24.0535 53.3071 23.6698 51.3024 22.6003C49.2977 21.5319 44.5734 18.8484 44.5734 18.8484L44.5625 17.5906L44.5628 17.5905ZM44.5628 15.13C44.5628 15.13 50.2398 19.5114 51.3026 20.2788C52.3653 21.0474 53.7698 21.9431 57.8479 22.5176C61.8923 23.0859 63.9656 23.3689 63.9656 23.3689V23.7035C63.9656 23.7035 60.2993 23.1843 57.8479 22.8845C55.3975 22.5835 53.5185 22.4564 51.3195 21.0307C49.1782 19.6434 44.5736 16.4886 44.5736 16.4886L44.5628 15.13ZM44.5741 12.558C44.5741 12.558 49.5507 17.0557 51.3199 18.5931C52.9478 20.0068 54.2678 20.4469 57.8483 21.0645C61.4302 21.682 63.9832 22.0657 63.9832 22.0657V22.3834C63.9832 22.3834 60.7443 21.8654 57.8315 21.4146C54.9186 20.9637 53.0626 20.7863 51.3199 19.4109C49.3092 17.8233 44.5741 14.0283 44.5741 14.0283V12.558ZM44.5741 10.1532C44.5741 10.1532 49.8067 15.4903 51.3199 17.0227C52.9248 18.6474 54.9814 19.2493 57.8315 19.7446C60.5523 20.217 63.9832 20.7638 63.9832 20.7638V21.0636C63.9832 21.0636 60.7612 20.5504 57.8315 20.0623C54.9585 19.5827 52.9479 19.3165 51.3031 17.8405C49.8298 16.5191 44.5741 11.7228 44.5741 11.7228V10.1532ZM44.563 7.55901C44.563 7.55901 50.2304 14.0736 51.3197 15.2355C53.0164 17.0449 53.8387 17.6685 57.8481 18.4251C59.4519 18.7285 63.983 19.5115 63.983 19.5115V19.7945C63.983 19.7945 60.2308 19.1266 57.8481 18.7093C55.4667 18.292 53.4511 18.1361 51.3029 16.0869C49.6665 14.5269 44.5739 9.24015 44.5739 9.24015L44.563 7.55901ZM44.5741 5.065C44.5741 5.065 50.1715 12.2462 51.3031 13.6828C52.4334 15.1181 53.9923 16.3039 57.8483 17.039C60.0715 17.4634 63.9832 18.1745 63.9832 18.1745V18.4419C63.9832 18.4419 60.556 17.8076 57.8483 17.3231C55.1409 16.8387 52.9056 16.3699 51.3031 14.5845C49.8974 13.0173 44.5632 6.85755 44.5632 6.85755L44.5741 5.065ZM44.5741 2.5265C44.5741 2.5265 50.5144 10.9764 51.3031 12.0124C52.0917 13.0484 53.1532 14.7176 57.8483 15.7032C59.0608 15.9574 64 16.9227 64 16.9227V17.1901C64 17.1901 60.2466 16.4718 57.8483 15.9706C55.4488 15.4694 52.9285 15.0125 51.3199 12.9981C49.8587 11.1683 44.5632 4.41985 44.5632 4.41985L44.5741 2.5265ZM44.5741 -0.000976562C44.5741 -0.000976562 50.3224 8.88778 51.3743 10.5222C52.425 12.1553 53.6265 13.4479 57.8797 14.3257C62.1329 15.2035 63.9842 15.6183 63.9842 15.6183V15.9349C63.9842 15.9349 61.2815 15.3737 57.8035 14.6183C54.3269 13.8629 52.9054 13.6075 51.3197 11.4611C49.9998 9.67443 44.5739 2.08066 44.5739 2.08066L44.5741 -0.000976562Z" fill="#BDBCBC"/>
<path d="M40.6501 12.8643H13.0811V31.1766H40.6501V12.8643Z" fill="#254AA5"/>
<path d="M13.0801 44H40.6534V42.4376H13.0801V44Z" fill="#254AA5"/>
<path d="M24.0469 26.8804H25.0057L24.2329 27.4559L24.5311 28.3684L23.7631 27.8061L22.9926 28.3684L23.2969 27.4559L22.5168 26.8804H23.4733L23.7631 25.9895L24.0469 26.8804ZM21.8186 24.6681H22.7799L22.0058 25.2449L22.3053 26.1586L21.5361 25.595L20.7668 26.1586L21.0687 25.2449L20.2886 24.6681H21.2463L21.5361 23.7796L21.8186 24.6681ZM21.0035 21.5543H21.9635L21.1907 22.1299L21.4902 23.0436L20.7209 22.4812L19.9504 23.0436L20.2535 22.1299L19.4746 21.5543H20.431L20.7209 20.6646L21.0035 21.5543ZM21.8186 18.5339H22.7799L22.0058 19.1095L22.3053 20.0232L21.5361 19.4596L20.7668 20.0232L21.0687 19.1095L20.2886 18.5339H21.2463L21.5361 17.6442L21.8186 18.5339ZM24.0149 16.2913H24.9737L24.2009 16.8681L24.5016 17.7806L23.7311 17.217L22.9606 17.7806L23.2649 16.8681L22.4848 16.2913H23.4412L23.7311 15.4016L24.0149 16.2913ZM33.2981 21.5467H34.2594L33.4853 22.1222L33.786 23.0359L33.0155 22.4724L32.2462 23.0359L32.5493 22.1222L31.768 21.5467H32.7244L33.0155 20.6569L33.2981 21.5467ZM32.4518 24.6605H33.4106L32.6377 25.2372L32.9384 26.1509L32.168 25.5873L31.3999 26.1509L31.703 25.2372L30.9217 24.6605H31.8781L32.168 23.7696L32.4518 24.6605ZM32.4518 18.5263H33.4106L32.6377 19.1006L32.9384 20.0143L32.168 19.452L31.3999 20.0143L31.703 19.1006L30.9217 18.5263H31.8781L32.168 17.6354L32.4518 18.5263ZM30.193 16.2837H31.1543L30.3802 16.8593L30.6809 17.7718L29.9104 17.2094L29.1412 17.7718L29.4443 16.8593L28.6629 16.2837H29.6206L29.9104 15.394L30.193 16.2837ZM30.193 26.8728H31.1543L30.3802 27.4483L30.6809 28.3608L29.9104 27.7972L29.1412 28.3608L29.4443 27.4483L28.6629 26.8728H29.6206L29.9104 25.9818L30.193 26.8728ZM27.1507 27.6814H28.1119L27.3379 28.2582L27.6386 29.1695L26.8681 28.6083L26.0988 29.1695L26.4019 28.2582L25.6206 27.6814H26.5782L26.8681 26.7917L27.1507 27.6814ZM27.1168 15.4691H28.0757L27.3028 16.0675L27.6035 17.016L26.833 16.432L26.0625 17.016L26.3669 16.0675L25.5867 15.4691H26.5432L26.833 14.5435L27.1168 15.4691Z" fill="#FFF200"/>
<path d="M30.6132 35.7621H30.3004C30.2436 35.7621 30.217 35.7357 30.217 35.6806L30.2218 34.4671C30.2218 34.2117 30.1615 34.0438 29.9091 34.0438C29.7352 34.0438 29.4309 34.1817 29.3125 34.2381V35.6806C29.3125 35.7322 29.2908 35.7621 29.2304 35.7621H28.9212C28.8609 35.7621 28.8391 35.7357 28.8391 35.6806V33.7321C28.8391 33.6769 28.8609 33.6469 28.9212 33.6469H29.2304C29.2908 33.6469 29.3125 33.6768 29.3125 33.7321V33.8628C29.3173 33.8628 29.3222 33.8666 29.3258 33.8666C29.4865 33.7551 29.7908 33.6076 30.0565 33.6076C30.6434 33.6076 30.6965 33.9925 30.6965 34.4278V35.6808C30.6965 35.7325 30.6784 35.7624 30.6131 35.7624M28.0002 34.7991H27.4701C27.2527 34.7991 27.1126 34.877 27.1126 35.1624C27.1126 35.3518 27.1778 35.413 27.3831 35.413C27.5703 35.413 27.8348 35.3039 28.0002 35.2091L28.0002 34.7991ZM28.0268 35.5161C27.8094 35.6804 27.5172 35.7967 27.2261 35.7967C26.7648 35.7967 26.6308 35.5461 26.6308 35.184C26.6259 34.678 26.9001 34.4621 27.4483 34.4621H28.005V34.3506C28.005 34.0916 27.9084 34.0005 27.5522 34.0005C27.4085 34.0005 27.1343 34.0221 26.9604 34.0388C26.8735 34.0521 26.8517 34.0475 26.8397 33.9873L26.7999 33.8279C26.7912 33.7714 26.8047 33.7367 26.9001 33.6984C27.0873 33.6336 27.4303 33.6037 27.6355 33.6037C28.3879 33.6037 28.4785 33.9094 28.4785 34.3939V35.2272C28.4785 35.4035 28.5002 35.4083 28.6355 35.4251C28.7007 35.4298 28.7176 35.443 28.7176 35.4898V35.6721C28.7176 35.7189 28.6874 35.7488 28.6137 35.762C28.5437 35.7752 28.4748 35.7835 28.4096 35.7835C28.2043 35.7835 28.0788 35.7236 28.0353 35.5209L28.0266 35.5162L28.0268 35.5161ZM25.1003 34.5099H25.9613C25.9613 34.2461 25.8913 33.9919 25.5314 33.9919C25.209 33.9919 25.122 34.1862 25.1003 34.5099ZM25.0955 34.8337C25.1088 35.2702 25.2657 35.3912 25.622 35.3912C25.779 35.3912 26.0217 35.3601 26.1872 35.3433C26.2657 35.3346 26.2922 35.3346 26.3055 35.4165L26.3309 35.5592C26.3443 35.6239 26.3357 35.6587 26.2573 35.6935C26.087 35.7582 25.7706 35.8014 25.5569 35.8014C24.726 35.8014 24.6041 35.275 24.6041 34.7126C24.6041 34.2941 24.6826 33.6035 25.5315 33.6035C26.3093 33.6035 26.4481 34.1047 26.4614 34.5699C26.4662 34.7258 26.4228 34.8337 26.2489 34.8337L25.0955 34.8337ZM23.5179 34.0436C23.3392 34.0436 23.0651 34.1683 22.9346 34.2379V35.3171C23.1303 35.3735 23.2873 35.3902 23.4358 35.3902C23.7486 35.3902 23.8573 35.2308 23.8573 34.6876C23.8573 34.1384 23.7486 34.0436 23.5179 34.0436ZM23.4829 35.8015C23.3392 35.8015 23.14 35.7752 22.9395 35.7056L22.9347 35.7104V36.4706C22.9347 36.5173 22.9226 36.557 22.8526 36.557H22.5434C22.4746 36.557 22.4613 36.527 22.4613 36.4706V33.733C22.4613 33.6767 22.483 33.6467 22.5434 33.6467H22.8526C22.9142 33.6467 22.9311 33.6803 22.9311 33.733V33.8625L22.9445 33.8712C23.1002 33.7632 23.3792 33.6122 23.6316 33.6122C24.2004 33.6122 24.3489 34.039 24.3489 34.6913C24.3489 35.3952 24.1701 35.8015 23.4829 35.8015ZM21.2616 34.0175C20.8921 34.0175 20.8088 34.2513 20.8088 34.6998C20.8088 35.1578 20.892 35.3821 21.2568 35.3821C21.6529 35.3821 21.7314 35.1614 21.7314 34.6998C21.7314 34.2417 21.6577 34.0175 21.2616 34.0175ZM21.2568 35.797C20.3837 35.797 20.3269 35.1614 20.3269 34.6698C20.3269 34.2633 20.4174 33.6026 21.2568 33.6026C22.1009 33.6026 22.2181 34.1602 22.2181 34.6698C22.2181 35.1614 22.1577 35.797 21.2568 35.797ZM19.4311 35.68C19.4311 35.7317 19.4094 35.7616 19.349 35.7616H19.035C18.9746 35.7616 18.9529 35.7364 18.9529 35.68V33.7327C18.9529 33.6763 18.9746 33.6464 19.035 33.6464H19.3442C19.4094 33.6464 19.4311 33.6811 19.4311 33.7327V33.9222L19.4398 33.9308C19.5702 33.8109 19.8794 33.6634 20.0835 33.6251C20.1403 33.6118 20.1788 33.6251 20.1885 33.6982L20.2187 33.9871C20.2225 34.0483 20.2274 34.0735 20.1354 34.0914C19.8927 34.1383 19.5835 34.2245 19.4314 34.2893V35.6802L19.4311 35.68ZM18.5012 35.7621H18.1921C18.1269 35.7621 18.1099 35.7321 18.1099 35.6805V35.5462L18.1012 35.5414C17.931 35.659 17.6351 35.8004 17.3706 35.8004C16.7837 35.8004 16.727 35.4551 16.727 35.0018V33.732C16.727 33.6805 16.7487 33.6468 16.8091 33.6468H17.1267C17.1835 33.6468 17.2052 33.6768 17.2052 33.732V34.9455C17.2052 35.2057 17.2571 35.3688 17.5228 35.3688C17.71 35.3688 17.9962 35.2309 18.1097 35.1745V33.732C18.1097 33.6805 18.1266 33.6468 18.1919 33.6468H18.501C18.5614 33.6468 18.5831 33.6768 18.5831 33.732V35.6805C18.5831 35.7357 18.5616 35.7621 18.5012 35.7621ZM14.6924 32.9812C14.6924 32.9248 14.719 32.8949 14.7793 32.8949H16.3794C16.4314 32.8949 16.4628 32.9248 16.4628 32.9764V33.245C16.4628 33.2966 16.4411 33.323 16.3759 33.323H15.1888V34.0652H16.2406C16.2973 34.0652 16.3276 34.0916 16.3276 34.1431V34.4105C16.3276 34.4622 16.3058 34.4884 16.2406 34.4884H15.1888V35.3386H16.4061C16.4579 35.3386 16.4846 35.365 16.4846 35.4214V35.684C16.4846 35.7404 16.4629 35.7619 16.4012 35.7619H14.7794C14.719 35.7619 14.6924 35.7355 14.6924 35.684L14.6924 32.9812Z" fill="#5A5758"/>
<path d="M35.0163 40.3185H34.7035C34.6467 40.3185 34.6202 40.2921 34.6202 40.237L34.625 39.0235C34.625 38.7681 34.5646 38.6002 34.3122 38.6002C34.1383 38.6002 33.834 38.7381 33.7156 38.7945V40.237C33.7156 40.2886 33.6939 40.3185 33.6335 40.3185H33.3244C33.264 40.3185 33.2422 40.2921 33.2422 40.237V38.2885C33.2422 38.2333 33.264 38.2033 33.3244 38.2033H33.6335C33.6939 38.2033 33.7156 38.2332 33.7156 38.2885V38.4192C33.7205 38.4192 33.7243 38.423 33.729 38.423C33.8896 38.3115 34.1951 38.164 34.4596 38.164C35.0465 38.164 35.0996 38.5489 35.0996 38.9842V40.2372C35.0996 40.2888 35.0816 40.3188 35.0163 40.3188M32.0509 38.574C31.6814 38.574 31.5993 38.8078 31.5993 39.2563C31.5993 39.7143 31.6814 39.9385 32.0461 39.9385C32.4422 39.9385 32.5207 39.7179 32.5207 39.2563C32.5207 38.7982 32.447 38.574 32.0509 38.574ZM32.0461 40.3534C31.173 40.3534 31.1163 39.7179 31.1163 39.2263C31.1163 38.8198 31.2068 38.1591 32.0461 38.1591C32.8903 38.1591 33.0074 38.7167 33.0074 39.2263C33.0074 39.7179 32.947 40.3534 32.0461 40.3534ZM30.7945 40.2365C30.7945 40.2833 30.7776 40.3181 30.716 40.3181H30.4068C30.3465 40.3181 30.3199 40.2928 30.3199 40.2365V38.2844C30.3199 38.2245 30.3465 38.2029 30.4068 38.2029H30.716C30.7776 38.2029 30.7945 38.2376 30.7945 38.2844V40.2365ZM30.5639 37.8923C30.3381 37.8923 30.3079 37.7664 30.3079 37.6417C30.3079 37.5038 30.355 37.3947 30.5639 37.3947C30.7777 37.3947 30.8211 37.4942 30.8211 37.6417C30.8211 37.7748 30.7813 37.8923 30.5639 37.8923ZM29.1511 40.3532C28.9337 40.3532 28.6427 40.3233 28.4772 40.2586C28.3903 40.2238 28.3722 40.1842 28.3855 40.1159L28.4156 39.9732C28.4289 39.9036 28.4591 39.9001 28.5291 39.9084C28.7199 39.9384 28.9989 39.96 29.1462 39.96C29.4252 39.96 29.5387 39.8868 29.5387 39.7142C29.5387 39.5152 29.4638 39.472 29.1897 39.4336C28.7634 39.3724 28.3902 39.2825 28.3902 38.8113C28.3902 38.3844 28.7199 38.1602 29.2078 38.1602C29.3853 38.1602 29.686 38.1854 29.8683 38.2549C29.942 38.2848 29.9734 38.3196 29.9601 38.3844L29.9251 38.5391C29.9119 38.6003 29.8865 38.6086 29.808 38.6003C29.6208 38.5787 29.3769 38.5523 29.2163 38.5523C28.9385 38.5523 28.8733 38.6302 28.8733 38.7945C28.8733 38.9624 28.9772 38.984 29.2428 39.0272C29.6559 39.0883 30.029 39.1698 30.029 39.6843C30.029 40.1891 29.5991 40.3532 29.1511 40.3532ZM27.3295 40.3532C27.1121 40.3532 26.821 40.3233 26.6556 40.2586C26.5686 40.2238 26.5505 40.1842 26.5638 40.1159L26.594 39.9732C26.6073 39.9036 26.6374 39.9001 26.7075 39.9084C26.8983 39.9384 27.1772 39.96 27.3246 39.96C27.6035 39.96 27.7171 39.8868 27.7171 39.7142C27.7171 39.5152 27.6422 39.472 27.368 39.4336C26.9418 39.3724 26.5686 39.2826 26.5686 38.8113C26.5686 38.3845 26.8983 38.1602 27.3862 38.1602C27.5637 38.1602 27.8644 38.1854 28.0467 38.2549C28.1204 38.2848 28.1518 38.3196 28.1385 38.3844L28.1035 38.5391C28.0902 38.6003 28.0649 38.6086 27.9864 38.6003C27.7992 38.5787 27.5553 38.5523 27.3946 38.5523C27.1169 38.5523 27.0517 38.6302 27.0517 38.7945C27.0517 38.9624 27.1555 38.984 27.4212 39.0272C27.8342 39.0883 28.2074 39.1699 28.2074 39.6843C28.2074 40.1891 27.7775 40.3532 27.3295 40.3532ZM26.2513 40.2366C26.2513 40.2834 26.2343 40.3181 26.1727 40.3181H25.8636C25.8032 40.3181 25.7766 40.2929 25.7766 40.2366V38.2845C25.7766 38.2245 25.8032 38.2029 25.8636 38.2029H26.1727C26.2344 38.2029 26.2513 38.2377 26.2513 38.2845V40.2366ZM26.0206 37.8923C25.7948 37.8923 25.7646 37.7664 25.7646 37.6417C25.7646 37.5038 25.8117 37.3947 26.0206 37.3947C26.2344 37.3947 26.2778 37.4942 26.2778 37.6417C26.2778 37.7748 26.238 37.8923 26.0206 37.8923ZM25.3434 40.3186H25.0306C24.969 40.3186 24.9472 40.2922 24.9472 40.237V39.0104C24.9472 38.6902 24.8699 38.6003 24.6513 38.6003C24.4907 38.6003 24.2299 38.725 24.0958 38.7945C24.0958 38.8377 24.0997 38.9156 24.0997 39.0139V40.237C24.0997 40.2886 24.0828 40.3186 24.0176 40.3186H23.7C23.6432 40.3186 23.6262 40.2922 23.6262 40.237V38.9888C23.6262 38.725 23.5562 38.6003 23.3388 38.6003C23.1867 38.6003 22.9427 38.7082 22.7773 38.7945V40.237C22.7773 40.2886 22.7555 40.3186 22.6952 40.3186H22.3824C22.3256 40.3186 22.3038 40.2922 22.3038 40.237V38.2885C22.3038 38.2334 22.3256 38.2033 22.3824 38.2033H22.6903C22.7556 38.2033 22.7773 38.2369 22.7773 38.2885V38.4144L22.7821 38.4192C22.9512 38.3017 23.1903 38.1722 23.4306 38.1638C23.6818 38.1638 23.8907 38.2154 24.026 38.466C24.2433 38.3065 24.5126 38.1638 24.7916 38.1638C25.3652 38.1638 25.422 38.5355 25.422 38.9672V40.237C25.422 40.2886 25.4037 40.3186 25.3434 40.3186ZM21.935 40.3186H21.6222C21.5607 40.3186 21.5389 40.2922 21.5389 40.237V39.0104C21.5389 38.6902 21.4616 38.6003 21.243 38.6003C21.0824 38.6003 20.8215 38.725 20.6875 38.7945C20.6875 38.8377 20.6914 38.9156 20.6914 39.0139V40.237C20.6914 40.2886 20.6745 40.3186 20.6092 40.3186H20.2916C20.2349 40.3186 20.2179 40.2922 20.2179 40.237V38.9888C20.2179 38.725 20.1479 38.6003 19.9305 38.6003C19.7783 38.6003 19.5344 38.7082 19.369 38.7945V40.237C19.369 40.2886 19.3472 40.3186 19.2868 40.3186H18.9741C18.9173 40.3186 18.8955 40.2922 18.8955 40.237V38.2885C18.8955 38.2334 18.9173 38.2033 18.9741 38.2033H19.282C19.3472 38.2033 19.369 38.2369 19.369 38.2885V38.4144L19.3738 38.4192C19.5429 38.3017 19.782 38.1722 20.0223 38.1638C20.2735 38.1638 20.4824 38.2154 20.6177 38.466C20.835 38.3065 21.1043 38.1638 21.3833 38.1638C21.9569 38.1638 22.0137 38.5355 22.0137 38.9672V40.237C22.0137 40.2886 21.9954 40.3186 21.935 40.3186ZM17.6913 38.574C17.3218 38.574 17.2384 38.8078 17.2384 39.2563C17.2384 39.7144 17.3218 39.9386 17.6864 39.9386C18.0825 39.9386 18.161 39.718 18.161 39.2563C18.161 38.7983 18.0873 38.574 17.6913 38.574ZM17.6865 40.3535C16.8133 40.3535 16.7566 39.7179 16.7566 39.2263C16.7566 38.8198 16.8471 38.1591 17.6865 38.1591C18.5306 38.1591 18.6477 38.7167 18.6477 39.2263C18.6477 39.7179 18.5874 40.3535 17.6865 40.3535ZM15.8262 37.4212C16.0388 37.4212 16.3914 37.4511 16.6221 37.5459C16.6921 37.5771 16.7174 37.6119 16.7042 37.6802L16.6655 37.8577C16.6522 37.9093 16.6306 37.9308 16.552 37.9224C16.3395 37.896 16.0786 37.8661 15.8528 37.8661C15.261 37.8661 15.1741 38.3409 15.1741 38.9021C15.1741 39.4681 15.2828 39.9129 15.8528 39.9129C16.104 39.9129 16.3177 39.8865 16.552 39.8565C16.6354 39.8479 16.6522 39.8698 16.6704 39.9261L16.7042 40.0903C16.7222 40.1587 16.7003 40.1983 16.6305 40.2282C16.4179 40.3181 16.0387 40.3577 15.8262 40.3577C14.8564 40.3577 14.6523 39.6455 14.6523 38.9105C14.6523 38.173 14.8348 37.4212 15.8262 37.4212Z" fill="#5A5758"/>
</g>
<defs>
<clipPath id="clip0_2981_64249">
<rect width="64" height="44" fill="white"/>
</clipPath>
</defs>
</svg>
