<svg width="20" height="20" viewBox="0 0 20 20" fill="none" xmlns="http://www.w3.org/2000/svg">
<path d="M3.04729 14.6542L3.37028 15.655L2.52471 15.0365L1.67908 15.655L2.00211 14.6542L1.15646 14.0357L2.20167 14.0357L2.52463 13.0349L2.84763 14.0357L3.89285 14.0357L3.04729 14.6542ZM1.89082 10.3092L2.21382 11.31L1.36829 10.6914L0.522562 11.31L0.845595 10.3092L0 9.69075L1.04517 9.69072L1.36817 8.68998L1.69116 9.69074L2.73643 9.69072L1.89082 10.3092ZM6.20675 17.8349L6.52975 18.8357L5.68418 18.2172L4.83854 18.8358L5.16158 17.835L4.31592 17.2165C4.31592 17.2165 5.03092 17.458 5.36114 17.2164C5.69134 16.9749 5.6841 16.2157 5.6841 16.2157L6.00708 17.2165L7.05231 17.2164L6.20675 17.8349ZM3.04729 5.96425L3.37029 6.96505L2.52466 6.34649L1.67903 6.96505L2.00206 5.96426L1.15641 5.34575L2.20168 5.34573L2.52468 4.345L2.84767 5.34575L3.89289 5.34575L3.04729 5.96425ZM10.5226 18.9992L10.8456 20L10 19.3814L9.15437 20L9.47734 18.9992L8.63175 18.3807L9.67702 18.3807L9.99998 17.38L10.323 18.3807L11.3682 18.3807L10.5226 18.9992ZM6.2067 2.78351L6.5297 3.7843L5.68409 3.16578L4.83848 3.78429L5.16147 2.78351L4.31588 2.16503L5.36115 2.16502L5.68414 1.16423L6.00712 2.16499L7.05231 2.165L6.2067 2.78351ZM14.8385 17.835L15.1615 18.8358L14.3158 18.2172L13.4702 18.8357L13.7933 17.835L12.9477 17.2165L13.9928 17.2164L14.3159 16.2157L14.6388 17.2165L15.6841 17.2165L14.8385 17.835ZM10.5226 1.61929L10.8456 2.62004L10 2.00146L9.15436 2.62004L9.47735 1.61926L8.63175 1.00078L9.67696 1.00073L9.99997 0L10.323 1.0008L11.3682 1.00079L10.5226 1.61929ZM17.9979 14.6542L18.3209 15.655L17.4753 15.0365L16.6297 15.655L16.9527 14.6542L16.1071 14.0357L17.1523 14.0357L17.4753 13.0349L17.7983 14.0357L18.8435 14.0357L17.9979 14.6542ZM14.8385 2.7835L15.1615 3.7843L14.3159 3.16578L13.4703 3.78428L13.7933 2.78351L12.9477 2.16503L13.9929 2.16498L14.3158 1.16426L14.6388 2.16501L15.6841 2.165L14.8385 2.7835ZM19.1544 10.3093L19.4774 11.31L18.6318 10.6915L17.7861 11.31L18.1091 10.3092L17.2636 9.69076L18.3088 9.69074L18.6318 8.68996L18.9548 9.69071L20 9.69077L19.1544 10.3093ZM17.9979 5.96427L18.3209 6.96506L17.4753 6.34648L16.6297 6.96505L16.9527 5.96425L16.1071 5.34575L17.1524 5.34573L17.4753 4.34501L17.7983 5.34572L18.8436 5.34575L17.9979 5.96427Z" fill="#FFCC00"/>
</svg>
