<svg width="17" height="17" viewBox="0 0 17 17" fill="none" xmlns="http://www.w3.org/2000/svg">
<path fill-rule="evenodd" clip-rule="evenodd" d="M8.30001 0C3.76821 0 0.0976562 3.67055 0.0976562 8.20235C0.0976562 11.8319 2.44558 14.8975 5.70601 15.9843C6.11613 16.0561 6.26993 15.81 6.26993 15.5947C6.26993 15.3999 6.25967 14.754 6.25967 14.067C4.19883 14.4464 3.66568 13.5646 3.50163 13.1033C3.40936 12.8674 3.00949 12.1395 2.66089 11.9447C2.37381 11.7909 1.96369 11.4115 2.65064 11.4013C3.29657 11.391 3.75796 11.9959 3.91175 12.242C4.64996 13.4826 5.82905 13.134 6.30068 12.9187C6.37245 12.3855 6.58777 12.0267 6.82358 11.8216C4.99856 11.6166 3.09151 10.9091 3.09151 7.77173C3.09151 6.87972 3.40936 6.14151 3.93226 5.56735C3.85023 5.36229 3.56315 4.52155 4.01428 3.39372C4.01428 3.39372 4.70123 3.17841 6.26993 4.23446C6.92611 4.04991 7.62331 3.95763 8.32051 3.95763C9.01771 3.95763 9.71491 4.04991 10.3711 4.23446C11.9398 3.16816 12.6267 3.39372 12.6267 3.39372C13.0779 4.52155 12.7908 5.36229 12.7088 5.56735C13.2317 6.14151 13.5495 6.86947 13.5495 7.77173C13.5495 10.9194 11.6322 11.6166 9.80719 11.8216C10.1045 12.078 10.3608 12.5701 10.3608 13.3391C10.3608 14.4361 10.3506 15.3179 10.3506 15.5947C10.3506 15.81 10.5044 16.0664 10.9145 15.9843C14.1544 14.8975 16.5024 11.8216 16.5024 8.20235C16.5024 3.67055 12.8318 0 8.30001 0Z" fill="#333333"/>
</svg>
