<svg width="60" height="220" viewBox="0 0 60 220" fill="none" xmlns="http://www.w3.org/2000/svg">
<rect width="12" height="12" rx="3" fill="url(#paint0_linear_3011_34297)" fill-opacity="0.2"/>
<rect x="16" width="12" height="12" rx="3" fill="url(#paint1_linear_3011_34297)" fill-opacity="0.16"/>
<rect x="32" width="12" height="12" rx="3" fill="url(#paint2_linear_3011_34297)" fill-opacity="0.16"/>
<rect y="16" width="12" height="12" rx="3" fill="url(#paint3_linear_3011_34297)" fill-opacity="0.2"/>
<rect x="16" y="16" width="12" height="12" rx="3" fill="url(#paint4_linear_3011_34297)" fill-opacity="0.1"/>
<rect x="32" y="16" width="12" height="12" rx="3" fill="url(#paint5_linear_3011_34297)" fill-opacity="0.2"/>
<rect y="32" width="12" height="12" rx="3" fill="url(#paint6_linear_3011_34297)" fill-opacity="0.16"/>
<rect x="16" y="32" width="12" height="12" rx="3" fill="url(#paint7_linear_3011_34297)" fill-opacity="0.04"/>
<rect x="32" y="32" width="12" height="12" rx="3" fill="url(#paint8_linear_3011_34297)" fill-opacity="0.04"/>
<rect x="48" y="32" width="12" height="12" rx="3" fill="url(#paint9_linear_3011_34297)" fill-opacity="0.16"/>
<rect y="48" width="12" height="12" rx="3" fill="url(#paint10_linear_3011_34297)" fill-opacity="0.1"/>
<rect x="16" y="48" width="12" height="12" rx="3" fill="url(#paint11_linear_3011_34297)" fill-opacity="0.1"/>
<rect x="32" y="48" width="12" height="12" rx="3" fill="url(#paint12_linear_3011_34297)" fill-opacity="0.04"/>
<rect y="64" width="12" height="12" rx="3" fill="url(#paint13_linear_3011_34297)" fill-opacity="0.1"/>
<rect x="16" y="64" width="12" height="12" rx="3" fill="url(#paint14_linear_3011_34297)" fill-opacity="0.2"/>
<rect x="32" y="64" width="12" height="12" rx="3" fill="url(#paint15_linear_3011_34297)" fill-opacity="0.2"/>
<rect y="80" width="12" height="12" rx="3" fill="url(#paint16_linear_3011_34297)" fill-opacity="0.1"/>
<rect x="16" y="80" width="12" height="12" rx="3" fill="url(#paint17_linear_3011_34297)" fill-opacity="0.2"/>
<rect x="32" y="80" width="12" height="12" rx="3" fill="url(#paint18_linear_3011_34297)" fill-opacity="0.1"/>
<rect x="48" y="80" width="12" height="12" rx="3" fill="url(#paint19_linear_3011_34297)" fill-opacity="0.1"/>
<rect y="96" width="12" height="12" rx="3" fill="url(#paint20_linear_3011_34297)" fill-opacity="0.2"/>
<rect x="16" y="96" width="12" height="12" rx="3" fill="url(#paint21_linear_3011_34297)" fill-opacity="0.1"/>
<rect x="32" y="96" width="12" height="12" rx="3" fill="url(#paint22_linear_3011_34297)" fill-opacity="0.16"/>
<rect y="112" width="12" height="12" rx="3" fill="url(#paint23_linear_3011_34297)" fill-opacity="0.2"/>
<rect x="16" y="112" width="12" height="12" rx="3" fill="url(#paint24_linear_3011_34297)" fill-opacity="0.2"/>
<rect x="32" y="112" width="12" height="12" rx="3" fill="url(#paint25_linear_3011_34297)" fill-opacity="0.04"/>
<rect x="48" y="112" width="12" height="12" rx="3" fill="url(#paint26_linear_3011_34297)" fill-opacity="0.04"/>
<rect y="128" width="12" height="12" rx="3" fill="url(#paint27_linear_3011_34297)" fill-opacity="0.2"/>
<rect x="16" y="128" width="12" height="12" rx="3" fill="url(#paint28_linear_3011_34297)" fill-opacity="0.1"/>
<rect x="32" y="128" width="12" height="12" rx="3" fill="url(#paint29_linear_3011_34297)" fill-opacity="0.04"/>
<rect y="144" width="12" height="12" rx="3" fill="url(#paint30_linear_3011_34297)" fill-opacity="0.1"/>
<rect x="16" y="144" width="12" height="12" rx="3" fill="url(#paint31_linear_3011_34297)" fill-opacity="0.2"/>
<rect x="32" y="144" width="12" height="12" rx="3" fill="url(#paint32_linear_3011_34297)" fill-opacity="0.16"/>
<rect y="160" width="12" height="12" rx="3" fill="url(#paint33_linear_3011_34297)" fill-opacity="0.1"/>
<rect x="16" y="160" width="12" height="12" rx="3" fill="url(#paint34_linear_3011_34297)" fill-opacity="0.2"/>
<rect x="32" y="160" width="12" height="12" rx="3" fill="url(#paint35_linear_3011_34297)" fill-opacity="0.1"/>
<rect x="48" y="160" width="12" height="12" rx="3" fill="url(#paint36_linear_3011_34297)" fill-opacity="0.16"/>
<rect y="176" width="12" height="12" rx="3" fill="url(#paint37_linear_3011_34297)" fill-opacity="0.2"/>
<rect x="16" y="176" width="12" height="12" rx="3" fill="url(#paint38_linear_3011_34297)" fill-opacity="0.2"/>
<rect x="32" y="176" width="12" height="12" rx="3" fill="url(#paint39_linear_3011_34297)" fill-opacity="0.2"/>
<rect x="48" y="176" width="12" height="12" rx="3" fill="url(#paint40_linear_3011_34297)" fill-opacity="0.1"/>
<rect y="192" width="12" height="12" rx="3" fill="url(#paint41_linear_3011_34297)" fill-opacity="0.2"/>
<rect x="16" y="192" width="12" height="12" rx="3" fill="url(#paint42_linear_3011_34297)" fill-opacity="0.1"/>
<rect x="32" y="192" width="12" height="12" rx="3" fill="url(#paint43_linear_3011_34297)" fill-opacity="0.04"/>
<rect y="208" width="12" height="12" rx="3" fill="url(#paint44_linear_3011_34297)" fill-opacity="0.2"/>
<rect x="16" y="208" width="12" height="12" rx="3" fill="url(#paint45_linear_3011_34297)" fill-opacity="0.1"/>
<rect x="32" y="208" width="12" height="12" rx="3" fill="url(#paint46_linear_3011_34297)" fill-opacity="0.1"/>
<defs>
<linearGradient id="paint0_linear_3011_34297" x1="6" y1="0" x2="6" y2="12" gradientUnits="userSpaceOnUse">
<stop stop-color="white"/>
<stop offset="1" stop-color="white" stop-opacity="0.4"/>
</linearGradient>
<linearGradient id="paint1_linear_3011_34297" x1="22" y1="0" x2="22" y2="12" gradientUnits="userSpaceOnUse">
<stop stop-color="white"/>
<stop offset="1" stop-color="white" stop-opacity="0.4"/>
</linearGradient>
<linearGradient id="paint2_linear_3011_34297" x1="38" y1="0" x2="38" y2="12" gradientUnits="userSpaceOnUse">
<stop stop-color="white"/>
<stop offset="1" stop-color="white" stop-opacity="0.4"/>
</linearGradient>
<linearGradient id="paint3_linear_3011_34297" x1="6" y1="16" x2="6" y2="28" gradientUnits="userSpaceOnUse">
<stop stop-color="white"/>
<stop offset="1" stop-color="white" stop-opacity="0.4"/>
</linearGradient>
<linearGradient id="paint4_linear_3011_34297" x1="22" y1="16" x2="22" y2="28" gradientUnits="userSpaceOnUse">
<stop stop-color="white"/>
<stop offset="1" stop-color="white" stop-opacity="0.4"/>
</linearGradient>
<linearGradient id="paint5_linear_3011_34297" x1="38" y1="16" x2="38" y2="28" gradientUnits="userSpaceOnUse">
<stop stop-color="white"/>
<stop offset="1" stop-color="white" stop-opacity="0.4"/>
</linearGradient>
<linearGradient id="paint6_linear_3011_34297" x1="6" y1="32" x2="6" y2="44" gradientUnits="userSpaceOnUse">
<stop stop-color="white"/>
<stop offset="1" stop-color="white" stop-opacity="0.4"/>
</linearGradient>
<linearGradient id="paint7_linear_3011_34297" x1="22" y1="32" x2="22" y2="44" gradientUnits="userSpaceOnUse">
<stop stop-color="white"/>
<stop offset="1" stop-color="white" stop-opacity="0.4"/>
</linearGradient>
<linearGradient id="paint8_linear_3011_34297" x1="38" y1="32" x2="38" y2="44" gradientUnits="userSpaceOnUse">
<stop stop-color="white"/>
<stop offset="1" stop-color="white" stop-opacity="0.4"/>
</linearGradient>
<linearGradient id="paint9_linear_3011_34297" x1="54" y1="32" x2="54" y2="44" gradientUnits="userSpaceOnUse">
<stop stop-color="white"/>
<stop offset="1" stop-color="white" stop-opacity="0.4"/>
</linearGradient>
<linearGradient id="paint10_linear_3011_34297" x1="6" y1="48" x2="6" y2="60" gradientUnits="userSpaceOnUse">
<stop stop-color="white"/>
<stop offset="1" stop-color="white" stop-opacity="0.4"/>
</linearGradient>
<linearGradient id="paint11_linear_3011_34297" x1="22" y1="48" x2="22" y2="60" gradientUnits="userSpaceOnUse">
<stop stop-color="white"/>
<stop offset="1" stop-color="white" stop-opacity="0.4"/>
</linearGradient>
<linearGradient id="paint12_linear_3011_34297" x1="38" y1="48" x2="38" y2="60" gradientUnits="userSpaceOnUse">
<stop stop-color="white"/>
<stop offset="1" stop-color="white" stop-opacity="0.4"/>
</linearGradient>
<linearGradient id="paint13_linear_3011_34297" x1="6" y1="64" x2="6" y2="76" gradientUnits="userSpaceOnUse">
<stop stop-color="white"/>
<stop offset="1" stop-color="white" stop-opacity="0.4"/>
</linearGradient>
<linearGradient id="paint14_linear_3011_34297" x1="22" y1="64" x2="22" y2="76" gradientUnits="userSpaceOnUse">
<stop stop-color="white"/>
<stop offset="1" stop-color="white" stop-opacity="0.4"/>
</linearGradient>
<linearGradient id="paint15_linear_3011_34297" x1="38" y1="64" x2="38" y2="76" gradientUnits="userSpaceOnUse">
<stop stop-color="white"/>
<stop offset="1" stop-color="white" stop-opacity="0.4"/>
</linearGradient>
<linearGradient id="paint16_linear_3011_34297" x1="6" y1="80" x2="6" y2="92" gradientUnits="userSpaceOnUse">
<stop stop-color="white"/>
<stop offset="1" stop-color="white" stop-opacity="0.4"/>
</linearGradient>
<linearGradient id="paint17_linear_3011_34297" x1="22" y1="80" x2="22" y2="92" gradientUnits="userSpaceOnUse">
<stop stop-color="white"/>
<stop offset="1" stop-color="white" stop-opacity="0.4"/>
</linearGradient>
<linearGradient id="paint18_linear_3011_34297" x1="38" y1="80" x2="38" y2="92" gradientUnits="userSpaceOnUse">
<stop stop-color="white"/>
<stop offset="1" stop-color="white" stop-opacity="0.4"/>
</linearGradient>
<linearGradient id="paint19_linear_3011_34297" x1="54" y1="80" x2="54" y2="92" gradientUnits="userSpaceOnUse">
<stop stop-color="white"/>
<stop offset="1" stop-color="white" stop-opacity="0.4"/>
</linearGradient>
<linearGradient id="paint20_linear_3011_34297" x1="6" y1="96" x2="6" y2="108" gradientUnits="userSpaceOnUse">
<stop stop-color="white"/>
<stop offset="1" stop-color="white" stop-opacity="0.4"/>
</linearGradient>
<linearGradient id="paint21_linear_3011_34297" x1="22" y1="96" x2="22" y2="108" gradientUnits="userSpaceOnUse">
<stop stop-color="white"/>
<stop offset="1" stop-color="white" stop-opacity="0.4"/>
</linearGradient>
<linearGradient id="paint22_linear_3011_34297" x1="38" y1="96" x2="38" y2="108" gradientUnits="userSpaceOnUse">
<stop stop-color="white"/>
<stop offset="1" stop-color="white" stop-opacity="0.4"/>
</linearGradient>
<linearGradient id="paint23_linear_3011_34297" x1="6" y1="112" x2="6" y2="124" gradientUnits="userSpaceOnUse">
<stop stop-color="white"/>
<stop offset="1" stop-color="white" stop-opacity="0.4"/>
</linearGradient>
<linearGradient id="paint24_linear_3011_34297" x1="22" y1="112" x2="22" y2="124" gradientUnits="userSpaceOnUse">
<stop stop-color="white"/>
<stop offset="1" stop-color="white" stop-opacity="0.4"/>
</linearGradient>
<linearGradient id="paint25_linear_3011_34297" x1="38" y1="112" x2="38" y2="124" gradientUnits="userSpaceOnUse">
<stop stop-color="white"/>
<stop offset="1" stop-color="white" stop-opacity="0.4"/>
</linearGradient>
<linearGradient id="paint26_linear_3011_34297" x1="54" y1="112" x2="54" y2="124" gradientUnits="userSpaceOnUse">
<stop stop-color="white"/>
<stop offset="1" stop-color="white" stop-opacity="0.4"/>
</linearGradient>
<linearGradient id="paint27_linear_3011_34297" x1="6" y1="128" x2="6" y2="140" gradientUnits="userSpaceOnUse">
<stop stop-color="white"/>
<stop offset="1" stop-color="white" stop-opacity="0.4"/>
</linearGradient>
<linearGradient id="paint28_linear_3011_34297" x1="22" y1="128" x2="22" y2="140" gradientUnits="userSpaceOnUse">
<stop stop-color="white"/>
<stop offset="1" stop-color="white" stop-opacity="0.4"/>
</linearGradient>
<linearGradient id="paint29_linear_3011_34297" x1="38" y1="128" x2="38" y2="140" gradientUnits="userSpaceOnUse">
<stop stop-color="white"/>
<stop offset="1" stop-color="white" stop-opacity="0.4"/>
</linearGradient>
<linearGradient id="paint30_linear_3011_34297" x1="6" y1="144" x2="6" y2="156" gradientUnits="userSpaceOnUse">
<stop stop-color="white"/>
<stop offset="1" stop-color="white" stop-opacity="0.4"/>
</linearGradient>
<linearGradient id="paint31_linear_3011_34297" x1="22" y1="144" x2="22" y2="156" gradientUnits="userSpaceOnUse">
<stop stop-color="white"/>
<stop offset="1" stop-color="white" stop-opacity="0.4"/>
</linearGradient>
<linearGradient id="paint32_linear_3011_34297" x1="38" y1="144" x2="38" y2="156" gradientUnits="userSpaceOnUse">
<stop stop-color="white"/>
<stop offset="1" stop-color="white" stop-opacity="0.4"/>
</linearGradient>
<linearGradient id="paint33_linear_3011_34297" x1="6" y1="160" x2="6" y2="172" gradientUnits="userSpaceOnUse">
<stop stop-color="white"/>
<stop offset="1" stop-color="white" stop-opacity="0.4"/>
</linearGradient>
<linearGradient id="paint34_linear_3011_34297" x1="22" y1="160" x2="22" y2="172" gradientUnits="userSpaceOnUse">
<stop stop-color="white"/>
<stop offset="1" stop-color="white" stop-opacity="0.4"/>
</linearGradient>
<linearGradient id="paint35_linear_3011_34297" x1="38" y1="160" x2="38" y2="172" gradientUnits="userSpaceOnUse">
<stop stop-color="white"/>
<stop offset="1" stop-color="white" stop-opacity="0.4"/>
</linearGradient>
<linearGradient id="paint36_linear_3011_34297" x1="54" y1="160" x2="54" y2="172" gradientUnits="userSpaceOnUse">
<stop stop-color="white"/>
<stop offset="1" stop-color="white" stop-opacity="0.4"/>
</linearGradient>
<linearGradient id="paint37_linear_3011_34297" x1="6" y1="176" x2="6" y2="188" gradientUnits="userSpaceOnUse">
<stop stop-color="white"/>
<stop offset="1" stop-color="white" stop-opacity="0.4"/>
</linearGradient>
<linearGradient id="paint38_linear_3011_34297" x1="22" y1="176" x2="22" y2="188" gradientUnits="userSpaceOnUse">
<stop stop-color="white"/>
<stop offset="1" stop-color="white" stop-opacity="0.4"/>
</linearGradient>
<linearGradient id="paint39_linear_3011_34297" x1="38" y1="176" x2="38" y2="188" gradientUnits="userSpaceOnUse">
<stop stop-color="white"/>
<stop offset="1" stop-color="white" stop-opacity="0.4"/>
</linearGradient>
<linearGradient id="paint40_linear_3011_34297" x1="54" y1="176" x2="54" y2="188" gradientUnits="userSpaceOnUse">
<stop stop-color="white"/>
<stop offset="1" stop-color="white" stop-opacity="0.4"/>
</linearGradient>
<linearGradient id="paint41_linear_3011_34297" x1="6" y1="192" x2="6" y2="204" gradientUnits="userSpaceOnUse">
<stop stop-color="white"/>
<stop offset="1" stop-color="white" stop-opacity="0.4"/>
</linearGradient>
<linearGradient id="paint42_linear_3011_34297" x1="22" y1="192" x2="22" y2="204" gradientUnits="userSpaceOnUse">
<stop stop-color="white"/>
<stop offset="1" stop-color="white" stop-opacity="0.4"/>
</linearGradient>
<linearGradient id="paint43_linear_3011_34297" x1="38" y1="192" x2="38" y2="204" gradientUnits="userSpaceOnUse">
<stop stop-color="white"/>
<stop offset="1" stop-color="white" stop-opacity="0.4"/>
</linearGradient>
<linearGradient id="paint44_linear_3011_34297" x1="6" y1="208" x2="6" y2="220" gradientUnits="userSpaceOnUse">
<stop stop-color="white"/>
<stop offset="1" stop-color="white" stop-opacity="0.4"/>
</linearGradient>
<linearGradient id="paint45_linear_3011_34297" x1="22" y1="208" x2="22" y2="220" gradientUnits="userSpaceOnUse">
<stop stop-color="white"/>
<stop offset="1" stop-color="white" stop-opacity="0.4"/>
</linearGradient>
<linearGradient id="paint46_linear_3011_34297" x1="38" y1="208" x2="38" y2="220" gradientUnits="userSpaceOnUse">
<stop stop-color="white"/>
<stop offset="1" stop-color="white" stop-opacity="0.4"/>
</linearGradient>
</defs>
</svg>
