<svg width="1019" height="179" viewBox="0 0 1019 179" fill="none" xmlns="http://www.w3.org/2000/svg">
<g clip-path="url(#clip0_3085_9222)">
<path opacity="0.8" d="M110.765 179.758V180.258H111.265V179.758H110.765ZM110.762 179.758H110.262V180.258H110.762V179.758ZM110.765 179.252H111.265L110.265 179.249L110.765 179.252ZM110.765 90.9019L111.068 91.2994L111.265 91.1493V90.9019H110.765ZM99.5244 100.731L99.1709 100.377V100.377L99.5244 100.731ZM66.793 179.295H66.293L67.293 179.297L66.793 179.295ZM66.793 89.0571L66.4897 88.6596L66.293 88.8097V89.0571H66.793ZM78.0273 79.2339L78.3809 79.5874H78.3809L78.0273 79.2339ZM110.762 0.206543V-0.293457H110.262V0.206542L110.762 0.206543ZM110.765 0.206543H111.265V-0.293457H110.765V0.206543ZM110.765 179.758V179.258H110.762V179.758V180.258H110.765V179.758ZM110.762 179.758H111.262C111.262 179.592 111.263 179.426 111.265 179.256L110.765 179.252L110.265 179.249C110.263 179.416 110.262 179.587 110.262 179.758H110.762ZM110.765 179.252H110.265V179.758H110.765H111.265V179.252H110.765ZM110.765 90.9019L110.461 90.5043C106.504 93.5235 102.73 96.8183 99.1709 100.377L99.5244 100.731L99.878 101.085C103.405 97.5572 107.146 94.2917 111.068 91.2994L110.765 90.9019ZM99.5244 100.731L99.1709 100.377C78.2273 121.321 66.4154 149.687 66.293 179.293L66.793 179.295L67.293 179.297C67.4143 149.955 79.121 121.842 99.878 101.085L99.5244 100.731ZM66.793 179.295H67.293V89.0571H66.793H66.293V179.295H66.793ZM66.793 89.0571L67.0963 89.4546C71.0513 86.4369 74.8237 83.1446 78.3809 79.5874L78.0273 79.2339L77.6738 78.8803C74.1484 82.4057 70.4096 85.6686 66.4897 88.6596L66.793 89.0571ZM78.0273 79.2339L78.3809 79.5874C99.434 58.5343 111.262 29.9802 111.262 0.206544L110.762 0.206543L110.262 0.206542C110.262 29.715 98.5394 58.0147 77.6738 78.8803L78.0273 79.2339ZM110.762 0.206543V0.706543H110.765V0.206543V-0.293457H110.762V0.206543ZM110.765 0.206543H110.265V90.9019H110.765H111.265V0.206543H110.765Z" fill="#E0E0E0"/>
<path opacity="0.8" d="M110.762 0.207031V0.707031H111.262V0.207031H110.762ZM66.793 0.207031V-0.292969H66.293V0.207031H66.793ZM66.793 89.0576L67.0963 89.4551L67.293 89.305V89.0576H66.793ZM-1 111.969H-1.5V112.469H-1V111.969ZM-1 67.9961V67.4961H-1.5V67.9961H-1ZM46.9346 48.1416L47.2881 48.4952H47.2881L46.9346 48.1416ZM66.79 0.206055V-0.293945H66.29V0.206055H66.79ZM110.762 0.206055H111.262V-0.293945H110.762V0.206055ZM110.762 0.207031V-0.292969H66.793V0.207031V0.707031H110.762V0.207031ZM66.793 0.207031H66.293V89.0576H66.793H67.293V0.207031H66.793ZM66.793 89.0576L66.4897 88.6601C47.2095 103.371 23.5226 111.469 -1 111.469V111.969V112.469C23.7431 112.469 47.6428 104.299 67.0963 89.4551L66.793 89.0576ZM-1 111.969H-0.5V67.9961H-1H-1.5V111.969H-1ZM-1 67.9961V68.4961C17.1115 68.4961 34.4813 61.3018 47.2881 48.4952L46.9346 48.1416L46.581 47.788C33.9617 60.4072 16.8463 67.4961 -1 67.4961V67.9961ZM46.9346 48.1416L47.2881 48.4952C60.095 35.6883 67.29 18.3177 67.29 0.206055H66.79H66.29C66.29 18.0525 59.2003 35.1687 46.581 47.788L46.9346 48.1416ZM66.79 0.206055V0.706055H110.762V0.206055V-0.293945H66.79V0.206055ZM110.762 0.206055H110.262V0.207031H110.762H111.262V0.206055H110.762Z" fill="#E0E0E0"/>
<path opacity="0.8" d="M110.76 179.759H110.26V180.259H110.76V179.759ZM110.76 90.9072L110.456 90.5097L110.26 90.6598V90.9072H110.76ZM178.552 67.9971H179.052V67.4971H178.552V67.9971ZM178.552 111.969V112.469H179.052V111.969H178.552ZM130.617 131.824L130.971 132.178V132.178L130.617 131.824ZM110.762 179.759V180.259H111.262V179.759H110.762ZM110.76 179.759H111.26V90.9072H110.76H110.26V179.759H110.76ZM110.76 90.9072L111.063 91.3047C130.343 76.5939 154.03 68.4971 178.552 68.4971V67.9971V67.4971C153.809 67.4971 129.91 75.6667 110.456 90.5097L110.76 90.9072ZM178.552 67.9971H178.052V111.969H178.552H179.052V67.9971H178.552ZM178.552 111.969V111.469C160.44 111.469 143.07 118.664 130.264 131.471L130.617 131.824L130.971 132.178C143.59 119.558 160.705 112.469 178.552 112.469V111.969ZM130.617 131.824L130.264 131.471C117.457 144.278 110.262 161.647 110.262 179.759H110.762H111.262C111.262 161.912 118.351 144.797 130.971 132.178L130.617 131.824ZM110.762 179.759V179.259H110.76V179.759V180.259H110.762V179.759Z" fill="#E0E0E0"/>
<path d="M110.762 0.206543L111.262 0.206544V-0.293457H110.762V0.206543ZM78.0273 79.2339L78.3809 79.5874H78.3809L78.0273 79.2339ZM66.793 89.0581H66.293V90.0685L67.0963 89.4556L66.793 89.0581ZM66.793 0.206543V-0.293457H66.293V0.206543H66.793ZM110.762 0.206543L110.262 0.206542C110.262 29.715 98.5394 58.0147 77.6738 78.8803L78.0273 79.2339L78.3809 79.5874C99.434 58.5343 111.262 29.9802 111.262 0.206544L110.762 0.206543ZM78.0273 79.2339L77.6738 78.8803C74.1482 82.4059 70.4098 85.6695 66.4897 88.6606L66.793 89.0581L67.0963 89.4556C71.0515 86.4377 74.8236 83.1447 78.3809 79.5874L78.0273 79.2339ZM66.793 89.0581H67.293V0.206543H66.793H66.293V89.0581H66.793ZM66.793 0.206543V0.706543H110.762V0.206543V-0.293457H66.793V0.206543Z" fill="#E0E0E0"/>
<path d="M66.79 179.759L66.29 179.759V180.259H66.79V179.759ZM99.5244 100.731L99.1709 100.378V100.378L99.5244 100.731ZM110.76 90.9072H111.26V89.8968L110.456 90.5097L110.76 90.9072ZM110.76 179.759V180.259H111.26V179.759H110.76ZM66.79 179.759L67.29 179.759C67.29 150.25 79.0123 121.951 99.878 101.085L99.5244 100.731L99.1709 100.378C78.1177 121.431 66.29 149.985 66.29 179.759L66.79 179.759ZM99.5244 100.731L99.878 101.085C103.404 97.5593 107.143 94.296 111.063 91.3047L110.76 90.9072L110.456 90.5097C106.501 93.5277 102.728 96.8204 99.1709 100.378L99.5244 100.731ZM110.76 90.9072H110.26V179.759H110.76H111.26V90.9072H110.76ZM110.76 179.759V179.259H66.79V179.759V180.259H110.76V179.759Z" fill="#E0E0E0"/>
<mask id="path-6-inside-1_3085_9222" fill="white">
<path d="M811.054 53.6118C816.098 53.6119 821.121 54.2026 826.12 55.3843C831.119 56.5659 835.687 58.5198 839.822 61.2466C843.958 63.9281 847.276 67.5873 849.775 72.2231C852.32 76.8589 853.594 82.6533 853.594 89.6069V159.689H829.869V145.304H829.051C827.551 148.213 825.438 150.941 822.711 153.486C820.029 155.985 816.643 158.008 812.553 159.553C808.508 161.053 803.758 161.802 798.305 161.802C791.669 161.802 785.692 160.621 780.375 158.257C775.103 155.849 770.922 152.304 767.831 147.623C764.786 142.941 763.264 137.169 763.264 130.306C763.264 124.398 764.355 119.512 766.536 115.649C768.718 111.786 771.695 108.695 775.467 106.377C779.239 104.06 783.488 102.31 788.215 101.128C792.987 99.9013 797.919 99.0146 803.009 98.4692C809.144 97.833 814.121 97.2651 817.938 96.7651C821.756 96.2198 824.529 95.4018 826.256 94.311C828.028 93.1748 828.915 91.4244 828.915 89.061V88.6528C828.915 83.5171 827.392 79.54 824.347 76.7222C821.302 73.9045 816.916 72.4956 811.189 72.4956C805.145 72.4956 800.35 73.8137 796.805 76.4497C793.305 79.0857 790.942 82.1992 789.715 85.7896L766.673 82.5171C768.491 76.1542 771.49 70.8362 775.671 66.564C779.852 62.2463 784.966 59.0194 791.011 56.8833C797.055 54.7019 803.737 53.6118 811.054 53.6118ZM437.4 53.6118C447.626 53.6118 456.489 55.8614 463.988 60.3608C471.487 64.8603 477.282 71.1778 481.372 79.313C485.508 87.4482 487.576 96.9241 487.576 107.741C487.576 118.558 485.508 128.011 481.372 136.101C477.282 144.191 471.487 150.485 463.988 154.985C456.489 159.484 447.626 161.735 437.4 161.735C427.174 161.735 418.312 159.484 410.812 154.985C403.314 150.485 397.496 144.191 393.36 136.101C389.27 128.011 387.225 118.558 387.225 107.741C387.225 96.9241 389.27 87.4482 393.36 79.313C397.496 71.1777 403.314 64.8603 410.812 60.3608C418.312 55.8614 427.174 53.6118 437.4 53.6118ZM974.006 53.6108C982.505 53.6108 990.027 55.1791 996.571 58.3149C1003.16 61.4054 1008.41 65.7913 1012.32 71.4722C1016.23 77.1078 1018.46 83.6982 1019 91.2427H995.413C994.459 86.1979 992.186 81.9936 988.596 78.6304C985.051 75.2217 980.3 73.5181 974.347 73.5181C969.302 73.5181 964.871 74.8812 961.054 77.6079C957.236 80.2894 954.259 84.1529 952.123 89.1978C950.032 94.2425 948.986 100.287 948.986 107.332C948.986 114.467 950.032 120.603 952.123 125.739C954.214 130.829 957.145 134.76 960.917 137.533C964.735 140.26 969.211 141.622 974.347 141.623C977.983 141.623 981.232 140.941 984.096 139.578C987.004 138.169 989.436 136.146 991.391 133.51C993.345 130.874 994.686 127.67 995.413 123.898H1019C1018.41 131.306 1016.23 137.874 1012.46 143.6C1008.68 149.281 1003.55 153.736 997.049 156.962C990.55 160.144 982.914 161.734 974.143 161.734C963.689 161.734 954.713 159.439 947.214 154.849C939.76 150.259 934.011 143.918 929.966 135.829C925.966 127.693 923.967 118.33 923.967 107.741C923.967 97.1058 926.012 87.7207 930.103 79.5854C934.193 71.4046 939.965 65.0415 947.419 60.4966C954.918 55.9064 963.78 53.6109 974.006 53.6108ZM686.994 18.1626C694.766 18.1626 701.993 19.2535 708.674 21.4351C715.355 23.6166 721.309 26.8207 726.535 31.0474C731.762 35.2286 736.057 40.3645 739.42 46.4546C742.829 52.4993 745.055 59.4075 746.101 67.1792H720.604C719.876 62.998 718.536 59.2937 716.582 56.0669C714.628 52.7946 712.196 50.022 709.287 47.7495C706.378 45.4771 703.061 43.7724 699.334 42.6362C695.653 41.4546 691.676 40.8638 687.403 40.8638C679.813 40.8638 673.087 42.7726 667.224 46.5903C661.361 50.3626 656.771 55.9079 653.453 63.2251C650.135 70.4969 648.477 79.3826 648.477 89.8813C648.477 100.562 650.135 109.56 653.453 116.877C656.816 124.149 661.406 129.649 667.224 133.375C673.086 137.057 679.791 138.898 687.335 138.898C691.516 138.898 695.426 138.352 699.062 137.261C702.743 136.125 706.038 134.466 708.946 132.285C711.9 130.103 714.377 127.422 716.377 124.241C718.422 121.059 719.831 117.423 720.604 113.333L746.101 113.469C745.146 120.104 743.079 126.331 739.897 132.148C736.762 137.965 732.648 143.101 727.558 147.555C722.467 151.964 716.514 155.419 709.696 157.918C702.879 160.373 695.311 161.599 686.994 161.599C674.723 161.599 663.77 158.759 654.135 153.078C644.5 147.397 636.91 139.193 631.365 128.467C625.821 117.741 623.048 104.879 623.048 89.8813C623.048 74.8377 625.842 61.9749 631.433 51.2944C637.023 40.5685 644.636 32.3652 654.271 26.6841C663.907 21.0031 674.814 18.1626 686.994 18.1626ZM293.62 159.692H268.328V20.0728H293.62V159.692ZM903.093 159.692H878.414V20.0728H903.093V159.692ZM370.773 53.4761C372.137 53.4761 373.659 53.5438 375.341 53.6802C377.068 53.7711 378.5 53.9305 379.636 54.1577V76.8589C378.59 76.4953 376.931 76.1775 374.659 75.9048C372.432 75.5867 370.273 75.4272 368.183 75.4272C363.683 75.4273 359.638 76.4046 356.048 78.3589C352.503 80.2677 349.708 82.9268 347.663 86.3354C345.618 89.7441 344.595 93.6754 344.595 98.1294V159.69H319.916V54.9751H343.845V72.4282H344.936C346.844 66.3835 350.117 61.725 354.753 58.4526C359.434 55.1349 364.774 53.4761 370.773 53.4761ZM564.559 53.6118C571.785 53.6119 578.08 55.1571 583.442 58.2476C588.851 61.3381 593.032 65.8145 595.986 71.6772C598.892 77.3568 600.369 84.2095 600.417 92.2349V159.689H575.738V96.8335C575.738 89.8346 573.921 84.3578 570.285 80.4038C566.695 76.4498 561.717 74.4722 555.354 74.4722C551.037 74.4722 547.196 75.4266 543.833 77.3354C540.515 79.1989 537.902 81.9038 535.993 85.4487C534.13 88.9937 533.198 93.2889 533.198 98.3335V159.689H508.52V54.9751H532.107V72.7681H533.335C535.744 66.9052 539.584 62.2466 544.856 58.7925C550.174 55.3385 556.742 53.6118 564.559 53.6118ZM828.982 109.787C828.21 110.423 826.892 111.014 825.029 111.559C823.211 112.104 821.166 112.582 818.894 112.991C816.621 113.4 814.371 113.763 812.145 114.082C809.918 114.4 807.986 114.672 806.35 114.899C802.668 115.399 799.373 116.217 796.464 117.353C793.555 118.489 791.261 120.08 789.579 122.125C787.898 124.125 787.057 126.716 787.057 129.897C787.057 134.442 788.715 137.874 792.033 140.192C795.351 142.51 799.577 143.668 804.713 143.668C809.667 143.668 813.962 142.691 817.598 140.737C821.234 138.737 824.029 136.101 825.983 132.829C827.983 129.556 828.982 125.989 828.982 122.125V109.787ZM437.536 73.1772C431.855 73.1773 427.129 74.7225 423.356 77.813C419.63 80.9035 416.835 85.0621 414.972 90.2886C413.154 95.4698 412.244 101.265 412.244 107.673C412.244 114.036 413.154 119.808 414.972 124.989C416.835 130.17 419.63 134.306 423.356 137.397C427.129 140.442 431.855 141.964 437.536 141.964C443.081 141.964 447.718 140.442 451.444 137.397C455.171 134.306 457.943 130.17 459.761 124.989C461.624 119.808 462.557 114.036 462.557 107.673C462.557 101.265 461.624 95.4698 459.761 90.2886C457.943 85.0621 455.171 80.9035 451.444 77.813C447.718 74.7225 443.081 73.1772 437.536 73.1772Z"/>
</mask>
<path d="M811.054 53.6118V52.6118V52.6118V53.6118ZM826.12 55.3843L826.35 54.4111V54.4111L826.12 55.3843ZM839.822 61.2466L839.272 62.0815L839.278 62.0857L839.822 61.2466ZM849.775 72.2231L848.895 72.6978L848.899 72.7044L849.775 72.2231ZM853.594 159.689V160.689H854.594V159.689H853.594ZM829.869 159.689H828.869V160.689H829.869V159.689ZM829.869 145.304H830.869V144.304H829.869V145.304ZM829.051 145.304V144.304H828.441L828.162 144.846L829.051 145.304ZM822.711 153.486L823.393 154.217L823.393 154.217L822.711 153.486ZM812.553 159.553L812.9 160.491L812.906 160.489L812.553 159.553ZM798.305 161.802V162.802V162.802V161.802ZM780.375 158.257L779.959 159.167L779.969 159.171L780.375 158.257ZM767.831 147.623L766.993 148.168L766.997 148.174L767.831 147.623ZM763.264 130.306L762.264 130.306V130.306H763.264ZM766.536 115.649L765.665 115.157V115.157L766.536 115.649ZM775.467 106.377L774.943 105.525V105.525L775.467 106.377ZM788.215 101.128L788.457 102.099L788.464 102.097L788.215 101.128ZM803.009 98.4692L802.906 97.4746L802.902 97.4749L803.009 98.4692ZM817.938 96.7651L818.068 97.7567L818.08 97.7551L817.938 96.7651ZM826.256 94.311L826.79 95.1566L826.796 95.1529L826.256 94.311ZM824.347 76.7222L825.026 75.9882V75.9882L824.347 76.7222ZM811.189 72.4956V71.4956V71.4956V72.4956ZM796.805 76.4497L796.208 75.6472L796.203 75.651L796.805 76.4497ZM789.715 85.7896L789.574 86.7796L790.393 86.896L790.661 86.113L789.715 85.7896ZM766.673 82.5171L765.711 82.2424L765.396 83.3458L766.532 83.5072L766.673 82.5171ZM775.671 66.564L776.386 67.2634L776.389 67.2596L775.671 66.564ZM791.011 56.8833L791.344 57.8262L791.35 57.8239L791.011 56.8833ZM437.4 53.6118V52.6118V52.6118V53.6118ZM463.988 60.3608L464.503 59.5034L464.503 59.5033L463.988 60.3608ZM481.372 79.313L480.479 79.7622L480.481 79.7662L481.372 79.313ZM487.576 107.741H488.576V107.741L487.576 107.741ZM481.372 136.101L480.482 135.646L480.48 135.65L481.372 136.101ZM463.988 154.985L464.503 155.842L464.503 155.842L463.988 154.985ZM437.4 161.735V162.735V162.735V161.735ZM410.812 154.985L410.298 155.842V155.842L410.812 154.985ZM393.36 136.101L392.468 136.552L392.47 136.556L393.36 136.101ZM387.225 107.741H386.225V107.741H387.225ZM393.36 79.313L392.469 78.8598L392.467 78.8638L393.36 79.313ZM410.812 60.3608L410.298 59.5033V59.5033L410.812 60.3608ZM974.006 53.6108V52.6108V52.6108V53.6108ZM996.571 58.3149L996.139 59.2168L996.147 59.2203L996.571 58.3149ZM1012.32 71.4722L1011.5 72.039L1011.5 72.0421L1012.32 71.4722ZM1019 91.2427V92.2427H1020.08L1020 91.1706L1019 91.2427ZM995.413 91.2427L994.431 91.4286L994.585 92.2427H995.413V91.2427ZM988.596 78.6304L987.903 79.3513L987.912 79.3602L988.596 78.6304ZM974.347 73.5181V72.5181V72.5181V73.5181ZM961.054 77.6079L961.628 78.4263L961.635 78.4217L961.054 77.6079ZM952.123 89.1978L951.202 88.8078L951.199 88.8149L952.123 89.1978ZM948.986 107.332H947.986V107.332H948.986ZM952.123 125.739L951.197 126.116L951.198 126.119L952.123 125.739ZM960.917 137.533L960.325 138.339L960.336 138.346L960.917 137.533ZM974.347 141.623V142.623V142.623V141.623ZM984.096 139.578L984.526 140.481L984.532 140.478L984.096 139.578ZM991.391 133.51L992.194 134.106L992.194 134.106L991.391 133.51ZM995.413 123.898V122.898H994.587L994.431 123.709L995.413 123.898ZM1019 123.898L1020 123.977L1020.08 122.898H1019V123.898ZM1012.46 143.6L1013.29 144.153L1013.29 144.15L1012.46 143.6ZM997.049 156.962L997.488 157.861L997.494 157.858L997.049 156.962ZM974.143 161.734V162.734V162.734V161.734ZM947.214 154.849L946.689 155.701L946.692 155.702L947.214 154.849ZM929.966 135.829L929.068 136.27L929.071 136.276L929.966 135.829ZM923.967 107.741H922.967V107.741H923.967ZM930.103 79.5854L930.996 80.0347L930.997 80.0327L930.103 79.5854ZM947.419 60.4966L947.94 61.3504L947.941 61.3495L947.419 60.4966ZM686.994 18.1626V17.1626V17.1626V18.1626ZM708.674 21.4351L708.984 20.4845V20.4845L708.674 21.4351ZM726.535 31.0474L725.906 31.8249L725.91 31.8282L726.535 31.0474ZM739.42 46.4546L738.544 46.938L738.549 46.9458L739.42 46.4546ZM746.101 67.1792V68.1792H747.244L747.092 67.0459L746.101 67.1792ZM720.604 67.1792L719.618 67.3505L719.762 68.1792H720.604V67.1792ZM716.582 56.0669L715.723 56.5796L715.727 56.5849L716.582 56.0669ZM709.287 47.7495L709.903 46.9615V46.9615L709.287 47.7495ZM699.334 42.6362L699.028 43.5884L699.035 43.5906L699.042 43.5928L699.334 42.6362ZM687.403 40.8638V39.8638V39.8638V40.8638ZM667.224 46.5903L667.765 47.4313L667.769 47.4283L667.224 46.5903ZM653.453 63.2251L654.363 63.6402L654.364 63.638L653.453 63.2251ZM648.477 89.8813H647.477V89.8814L648.477 89.8813ZM653.453 116.877L652.542 117.29L652.546 117.297L653.453 116.877ZM667.224 133.375L666.684 134.218L666.692 134.222L667.224 133.375ZM687.335 138.898V139.898V139.898V138.898ZM699.062 137.261L699.349 138.219L699.356 138.217L699.062 137.261ZM708.946 132.285L708.352 131.48L708.346 131.485L708.946 132.285ZM716.377 124.241L715.536 123.7L715.53 123.709L716.377 124.241ZM720.604 113.333L720.609 112.333L719.776 112.328L719.621 113.147L720.604 113.333ZM746.101 113.469L747.09 113.612L747.254 112.475L746.106 112.469L746.101 113.469ZM739.897 132.148L739.02 131.668L739.017 131.673L739.897 132.148ZM727.558 147.555L728.212 148.311L728.216 148.308L727.558 147.555ZM709.696 157.918L710.035 158.859L710.041 158.857L709.696 157.918ZM686.994 161.599V162.599V162.599V161.599ZM654.135 153.078L653.627 153.939V153.939L654.135 153.078ZM631.365 128.467L630.477 128.927V128.927L631.365 128.467ZM623.048 89.8813H622.048V89.8813H623.048ZM631.433 51.2944L632.319 51.7582L632.319 51.7566L631.433 51.2944ZM654.271 26.6841L653.764 25.8227V25.8227L654.271 26.6841ZM293.62 159.692V160.692H294.62V159.692H293.62ZM268.328 159.692H267.328V160.692H268.328V159.692ZM268.328 20.0728V19.0728H267.328V20.0728H268.328ZM293.62 20.0728H294.62V19.0728H293.62V20.0728ZM903.093 159.692V160.692H904.093V159.692H903.093ZM878.414 159.692H877.414V160.692H878.414V159.692ZM878.414 20.0728V19.0728H877.414V20.0728H878.414ZM903.093 20.0728H904.093V19.0728H903.093V20.0728ZM370.773 53.4761V52.4761V52.4761V53.4761ZM375.341 53.6802L375.26 54.6769L375.274 54.6781L375.288 54.6788L375.341 53.6802ZM379.636 54.1577H380.636V53.3379L379.832 53.1771L379.636 54.1577ZM379.636 76.8589L379.307 77.8034L380.636 78.2654V76.8589H379.636ZM374.659 75.9048L374.518 76.8947L374.529 76.8963L374.54 76.8977L374.659 75.9048ZM368.183 75.4272V74.4272H368.183L368.183 75.4272ZM356.048 78.3589L356.522 79.2394L356.526 79.2372L356.048 78.3589ZM347.663 86.3354L346.806 85.821V85.821L347.663 86.3354ZM344.595 159.69V160.69H345.595V159.69H344.595ZM319.916 159.69H318.916V160.69H319.916V159.69ZM319.916 54.9751V53.9751H318.916V54.9751H319.916ZM343.845 54.9751H344.845V53.9751H343.845V54.9751ZM343.845 72.4282H342.845V73.4282H343.845V72.4282ZM344.936 72.4282V73.4282H345.668L345.889 72.7294L344.936 72.4282ZM354.753 58.4526L355.33 59.2696L355.331 59.2685L354.753 58.4526ZM564.559 53.6118V52.6118V52.6118V53.6118ZM583.442 58.2476L582.943 59.114L582.946 59.1158L583.442 58.2476ZM595.986 71.6772L595.093 72.1272L595.096 72.1327L595.986 71.6772ZM600.417 92.2349H601.417L601.417 92.2289L600.417 92.2349ZM600.417 159.689V160.689H601.417V159.689H600.417ZM575.738 159.689H574.738V160.689H575.738V159.689ZM570.285 80.4038L569.545 81.0761L569.549 81.0807L570.285 80.4038ZM555.354 74.4722V73.4722V73.4722V74.4722ZM543.833 77.3354L544.323 78.2073L544.327 78.2051L543.833 77.3354ZM535.993 85.4487L535.113 84.9746L535.108 84.9835L535.993 85.4487ZM533.198 159.689V160.689H534.198V159.689H533.198ZM508.52 159.689H507.52V160.689H508.52V159.689ZM508.52 54.9751V53.9751H507.52V54.9751H508.52ZM532.107 54.9751H533.107V53.9751H532.107V54.9751ZM532.107 72.7681H531.107V73.7681H532.107V72.7681ZM533.335 72.7681V73.7681H534.005L534.26 73.1481L533.335 72.7681ZM544.856 58.7925L544.312 57.9539L544.308 57.956L544.856 58.7925ZM828.982 109.787H829.982V107.668L828.347 109.015L828.982 109.787ZM825.029 111.559L824.748 110.599L824.742 110.601L825.029 111.559ZM818.894 112.991L819.071 113.975H819.071L818.894 112.991ZM812.145 114.082L812.286 115.071V115.071L812.145 114.082ZM806.35 114.899L806.484 115.89L806.487 115.889L806.35 114.899ZM796.464 117.353L796.1 116.422V116.422L796.464 117.353ZM789.579 122.125L790.344 122.769L790.352 122.761L789.579 122.125ZM787.057 129.897L786.057 129.897V129.897H787.057ZM792.033 140.192L791.461 141.012V141.012L792.033 140.192ZM804.713 143.668V144.668V144.668V143.668ZM817.598 140.737L818.071 141.618L818.08 141.613L817.598 140.737ZM825.983 132.829L825.13 132.307L825.125 132.316L825.983 132.829ZM437.536 73.1772V72.1772H437.536L437.536 73.1772ZM423.356 77.813L422.723 77.0394L422.718 77.0432L423.356 77.813ZM414.972 90.2886L414.03 89.9527L414.028 89.9575L414.972 90.2886ZM412.244 107.673H411.244V107.673L412.244 107.673ZM414.972 124.989L414.028 125.32L414.031 125.327L414.972 124.989ZM423.356 137.397L422.718 138.167L422.728 138.175L423.356 137.397ZM437.536 141.964L437.536 142.964H437.536V141.964ZM451.444 137.397L452.077 138.171L452.083 138.167L451.444 137.397ZM459.761 124.989L458.82 124.65L458.817 124.658L459.761 124.989ZM462.557 107.673L463.557 107.673V107.673H462.557ZM459.761 90.2886L458.816 90.6171L458.82 90.627L459.761 90.2886ZM451.444 77.813L452.083 77.0432L452.083 77.0432L451.444 77.813ZM811.054 53.6118V54.6118C816.02 54.6119 820.965 55.1933 825.89 56.3575L826.12 55.3843L826.35 54.4111C821.277 53.212 816.177 52.6119 811.054 52.6118V53.6118ZM826.12 55.3843L825.89 56.3575C830.779 57.5132 835.238 59.4216 839.272 62.0814L839.822 61.2466L840.373 60.4117C836.136 57.618 831.459 55.6187 826.35 54.4111L826.12 55.3843ZM839.822 61.2466L839.278 62.0857C843.264 64.6695 846.47 68.1992 848.895 72.6978L849.775 72.2231L850.656 71.7485C848.082 66.9755 844.653 63.1866 840.366 60.4075L839.822 61.2466ZM849.775 72.2231L848.899 72.7044C851.341 77.1535 852.594 82.7704 852.594 89.6069H853.594H854.594C854.594 82.5362 853.299 76.5643 850.652 71.7419L849.775 72.2231ZM853.594 89.6069H852.594V159.689H853.594H854.594V89.6069H853.594ZM853.594 159.689V158.689H829.869V159.689V160.689H853.594V159.689ZM829.869 159.689H830.869V145.304H829.869H828.869V159.689H829.869ZM829.869 145.304V144.304H829.051V145.304V146.304H829.869V145.304ZM829.051 145.304L828.162 144.846C826.722 147.639 824.683 150.277 822.029 152.755L822.711 153.486L823.393 154.217C826.193 151.604 828.38 148.786 829.94 145.762L829.051 145.304ZM822.711 153.486L822.029 152.754C819.459 155.15 816.191 157.11 812.199 158.618L812.553 159.553L812.906 160.489C817.095 158.906 820.6 156.821 823.393 154.217L822.711 153.486ZM812.553 159.553L812.205 158.616C808.297 160.065 803.67 160.802 798.305 160.802V161.802V162.802C803.847 162.802 808.719 162.041 812.9 160.491L812.553 159.553ZM798.305 161.802V160.802C791.789 160.802 785.954 159.643 780.781 157.344L780.375 158.257L779.969 159.171C785.431 161.599 791.549 162.802 798.305 162.802V161.802ZM780.375 158.257L780.791 157.348C775.683 155.014 771.649 151.591 768.666 147.072L767.831 147.623L766.997 148.174C770.194 153.017 774.523 156.683 779.959 159.167L780.375 158.257ZM767.831 147.623L768.669 147.077C765.752 142.592 764.264 137.02 764.264 130.306H763.264H762.264C762.264 137.318 763.82 143.291 766.993 148.168L767.831 147.623ZM763.264 130.306L764.264 130.306C764.264 124.515 765.334 119.812 767.407 116.141L766.536 115.649L765.665 115.157C763.376 119.212 762.264 124.281 762.264 130.306L763.264 130.306ZM766.536 115.649L767.407 116.141C769.505 112.425 772.363 109.458 775.99 107.229L775.467 106.377L774.943 105.525C771.026 107.932 767.93 111.147 765.665 115.157L766.536 115.649ZM775.467 106.377L775.99 107.229C779.667 104.97 783.82 103.258 788.457 102.099L788.215 101.128L787.972 100.158C783.157 101.362 778.811 103.149 774.943 105.525L775.467 106.377ZM788.215 101.128L788.464 102.097C793.187 100.882 798.071 100.004 803.115 99.4635L803.009 98.4692L802.902 97.4749C797.766 98.0253 792.786 98.9203 787.966 100.16L788.215 101.128ZM803.009 98.4692L803.112 99.4639C809.252 98.8272 814.238 98.2582 818.068 97.7567L817.938 96.7651L817.809 95.7736C814.003 96.2719 809.037 96.8387 802.906 97.4746L803.009 98.4692ZM817.938 96.7651L818.08 97.7551C821.935 97.2044 824.88 96.363 826.79 95.1565L826.256 94.311L825.722 93.4655C824.178 94.4405 821.577 95.2352 817.797 95.7752L817.938 96.7651ZM826.256 94.311L826.796 95.1529C828.894 93.8077 829.915 91.7158 829.915 89.061H828.915H827.915C827.915 91.1329 827.163 92.5419 825.716 93.4692L826.256 94.311ZM828.915 89.061H829.915V88.6528H828.915H827.915V89.061H828.915ZM828.915 88.6528H829.915C829.915 83.3094 828.322 79.0387 825.026 75.9882L824.347 76.7222L823.667 77.4561C826.461 80.0413 827.915 83.7248 827.915 88.6528H828.915ZM824.347 76.7222L825.026 75.9882C821.736 72.9436 817.071 71.4956 811.189 71.4956V72.4956V73.4956C816.761 73.4956 820.868 74.8654 823.667 77.4561L824.347 76.7222ZM811.189 72.4956V71.4956C805.008 71.4956 799.979 72.8432 796.208 75.6472L796.805 76.4497L797.401 77.2522C800.72 74.7842 805.282 73.4956 811.189 73.4956V72.4956ZM796.805 76.4497L796.203 75.651C792.569 78.3882 790.07 81.6584 788.769 85.4661L789.715 85.7896L790.661 86.113C791.814 82.74 794.041 79.7832 797.406 77.2485L796.805 76.4497ZM789.715 85.7896L789.855 84.7995L766.813 81.527L766.673 82.5171L766.532 83.5072L789.574 86.7796L789.715 85.7896ZM766.673 82.5171L767.634 82.7918C769.412 76.5713 772.333 71.4044 776.386 67.2634L775.671 66.564L774.956 65.8645C770.646 70.268 767.57 75.7372 765.711 82.2424L766.673 82.5171ZM775.671 66.564L776.389 67.2596C780.456 63.0604 785.435 59.9143 791.344 57.8262L791.011 56.8833L790.678 55.9404C784.497 58.1245 779.249 61.4322 774.953 65.8683L775.671 66.564ZM791.011 56.8833L791.35 57.8239C797.272 55.6869 803.836 54.6118 811.054 54.6118V53.6118V52.6118C803.637 52.6118 796.839 53.7169 790.671 55.9427L791.011 56.8833ZM437.4 53.6118V54.6118C447.476 54.6118 456.155 56.8269 463.474 61.2183L463.988 60.3608L464.503 59.5033C456.824 54.8959 447.777 52.6118 437.4 52.6118V53.6118ZM463.988 60.3608L463.474 61.2183C470.803 65.6161 476.47 71.7889 480.479 79.7622L481.372 79.313L482.266 78.8638C478.094 70.5667 472.171 64.1044 464.503 59.5034L463.988 60.3608ZM481.372 79.313L480.481 79.7662C484.533 87.7373 486.576 97.0526 486.576 107.741L487.576 107.741L488.576 107.741C488.576 96.7956 486.483 87.1592 482.263 78.8598L481.372 79.313ZM487.576 107.741H486.576C486.576 118.429 484.533 127.721 480.482 135.646L481.372 136.101L482.262 136.556C486.483 128.301 488.576 118.686 488.576 107.741H487.576ZM481.372 136.101L480.48 135.65C476.471 143.578 470.805 149.729 463.474 154.127L463.988 154.985L464.503 155.842C472.17 151.242 478.092 144.804 482.264 136.552L481.372 136.101ZM463.988 154.985L463.474 154.127C456.155 158.519 447.476 160.735 437.4 160.735V161.735V162.735C447.777 162.735 456.824 160.45 464.503 155.842L463.988 154.985ZM437.4 161.735V160.735C427.325 160.735 418.646 158.519 411.327 154.127L410.812 154.985L410.298 155.842C417.977 160.45 427.024 162.735 437.4 162.735V161.735ZM410.812 154.985L411.327 154.127C403.995 149.728 398.305 143.576 394.251 135.646L393.36 136.101L392.47 136.556C396.687 144.806 402.632 151.243 410.298 155.842L410.812 154.985ZM393.36 136.101L394.253 135.65C390.246 127.724 388.225 118.431 388.225 107.741H387.225H386.225C386.225 118.684 388.294 128.298 392.468 136.552L393.36 136.101ZM387.225 107.741H388.225C388.225 97.051 390.246 87.7342 394.254 79.7622L393.36 79.313L392.467 78.8638C388.295 87.1623 386.225 96.7972 386.225 107.741H387.225ZM393.36 79.313L394.252 79.7662C398.306 71.7907 403.996 65.6168 411.327 61.2183L410.812 60.3608L410.298 59.5033C402.631 64.1038 396.686 70.5647 392.469 78.8598L393.36 79.313ZM410.812 60.3608L411.327 61.2183C418.646 56.8269 427.325 54.6118 437.4 54.6118V53.6118V52.6118C427.024 52.6118 417.977 54.8959 410.298 59.5033L410.812 60.3608ZM974.006 53.6108V54.6108C982.38 54.6108 989.751 56.1557 996.139 59.2168L996.571 58.3149L997.003 57.4131C990.303 54.2025 982.629 52.6108 974.006 52.6108V53.6108ZM996.571 58.3149L996.147 59.2203C1002.59 62.2397 1007.69 66.5126 1011.5 72.039L1012.32 71.4722L1013.14 70.9053C1009.13 65.0699 1003.74 60.5711 996.996 57.4096L996.571 58.3149ZM1012.32 71.4722L1011.5 72.0421C1015.29 77.5157 1017.47 83.9301 1018 91.3148L1019 91.2427L1020 91.1706C1019.44 83.4663 1017.16 76.6999 1013.14 70.9023L1012.32 71.4722ZM1019 91.2427V90.2427H995.413V91.2427V92.2427H1019V91.2427ZM995.413 91.2427L996.396 91.0568C995.404 85.8133 993.032 81.4154 989.279 77.9005L988.596 78.6304L987.912 79.3602C991.341 82.5718 993.514 86.5825 994.431 91.4286L995.413 91.2427ZM988.596 78.6304L989.289 77.9095C985.52 74.2853 980.501 72.5181 974.347 72.5181V73.5181V74.5181C980.1 74.5181 984.582 76.1581 987.903 79.3512L988.596 78.6304ZM974.347 73.5181V72.5181C969.11 72.5182 964.473 73.937 960.472 76.7942L961.054 77.6079L961.635 78.4217C965.27 75.8254 969.494 74.5181 974.347 74.5181V73.5181ZM961.054 77.6079L960.479 76.7896C956.483 79.5963 953.398 83.6212 951.202 88.8078L952.123 89.1978L953.044 89.5877C955.12 84.6847 957.989 80.9825 961.628 78.4262L961.054 77.6079ZM952.123 89.1978L951.199 88.8149C949.046 94.0106 947.986 100.192 947.986 107.332H948.986H949.986C949.986 100.382 951.019 94.4744 953.047 89.5806L952.123 89.1978ZM948.986 107.332H947.986C947.986 114.561 949.046 120.831 951.197 126.116L952.123 125.739L953.049 125.362C951.019 120.375 949.986 114.373 949.986 107.332H948.986ZM952.123 125.739L951.198 126.119C953.346 131.348 956.38 135.44 960.325 138.339L960.917 137.533L961.509 136.727C957.909 134.081 955.081 130.309 953.048 125.359L952.123 125.739ZM960.917 137.533L960.336 138.346C964.339 141.206 969.024 142.622 974.347 142.623V141.623V140.623C969.399 140.622 965.13 139.313 961.498 136.719L960.917 137.533ZM974.347 141.623V142.623C978.109 142.623 981.51 141.917 984.526 140.48L984.096 139.578L983.666 138.675C980.955 139.965 977.856 140.623 974.347 140.623V141.623ZM984.096 139.578L984.532 140.478C987.588 138.997 990.145 136.869 992.194 134.106L991.391 133.51L990.587 132.915C988.728 135.423 986.421 137.34 983.66 138.678L984.096 139.578ZM991.391 133.51L992.194 134.106C994.251 131.331 995.644 127.982 996.395 124.087L995.413 123.898L994.431 123.709C993.728 127.359 992.438 130.418 990.587 132.915L991.391 133.51ZM995.413 123.898V124.898H1019V123.898V122.898H995.413V123.898ZM1019 123.898L1018 123.818C1017.43 131.073 1015.29 137.476 1011.62 143.05L1012.46 143.6L1013.29 144.15C1017.16 138.271 1019.39 131.539 1020 123.977L1019 123.898ZM1012.46 143.6L1011.62 143.047C1007.95 148.572 1002.96 152.913 996.604 156.067L997.049 156.962L997.494 157.858C1004.14 154.558 1009.41 149.99 1013.29 144.153L1012.46 143.6ZM997.049 156.962L996.609 156.064C990.273 159.166 982.794 160.734 974.143 160.734V161.734V162.734C983.035 162.734 990.826 161.122 997.488 157.861L997.049 156.962ZM974.143 161.734V160.734C963.838 160.734 955.05 158.474 947.736 153.996L947.214 154.849L946.692 155.702C954.376 160.405 963.54 162.734 974.143 162.734V161.734ZM947.214 154.849L947.738 153.998C940.449 149.508 934.825 143.311 930.86 135.381L929.966 135.829L929.071 136.276C933.197 144.526 939.072 151.009 946.689 155.701L947.214 154.849ZM929.966 135.829L930.863 135.387C926.942 127.411 924.967 118.203 924.967 107.741H923.967H922.967C922.967 118.458 924.991 127.976 929.068 136.27L929.966 135.829ZM923.967 107.741H924.967C924.967 97.2357 926.987 88.009 930.996 80.0347L930.103 79.5854L929.209 79.1362C925.038 87.4325 922.967 96.9759 922.967 107.741H923.967ZM930.103 79.5854L930.997 80.0327C935.008 72.0114 940.654 65.7928 947.94 61.3504L947.419 60.4966L946.898 59.6428C939.277 64.2902 933.378 70.7979 929.208 79.1382L930.103 79.5854ZM947.419 60.4966L947.941 61.3495C955.259 56.8703 963.934 54.6109 974.006 54.6108V53.6108V52.6108C963.626 52.6109 954.577 54.9425 946.897 59.6437L947.419 60.4966ZM686.994 18.1626V19.1626C694.672 19.1626 701.793 20.2401 708.363 22.3857L708.674 21.4351L708.984 20.4845C702.193 18.2669 694.86 17.1626 686.994 17.1626V18.1626ZM708.674 21.4351L708.363 22.3857C714.934 24.5312 720.779 27.6783 725.906 31.8249L726.535 31.0474L727.164 30.2698C721.838 25.9631 715.776 22.7021 708.984 20.4845L708.674 21.4351ZM726.535 31.0474L725.91 31.8282C731.031 35.9245 735.242 40.9579 738.545 46.938L739.42 46.4546L740.295 45.9712C736.871 39.7711 732.493 34.5328 727.16 30.2665L726.535 31.0474ZM739.42 46.4546L738.549 46.9458C741.888 52.8664 744.079 59.6504 745.109 67.3125L746.101 67.1792L747.092 67.0459C746.032 59.1647 743.77 52.1321 740.291 45.9634L739.42 46.4546ZM746.101 67.1792V66.1792H720.604V67.1792V68.1792H746.101V67.1792ZM720.604 67.1792L721.589 67.0079C720.843 62.7194 719.464 58.8947 717.437 55.5489L716.582 56.0669L715.727 56.5849C717.609 59.6927 718.91 63.2766 719.618 67.3505L720.604 67.1792ZM716.582 56.0669L717.441 55.5542C715.425 52.1794 712.912 49.3124 709.903 46.9615L709.287 47.7495L708.671 48.5375C711.48 50.7315 713.83 53.4098 715.723 56.5796L716.582 56.0669ZM709.287 47.7495L709.903 46.9615C706.892 44.6094 703.463 42.8497 699.626 41.6797L699.334 42.6362L699.042 43.5928C702.658 44.6952 705.865 46.3448 708.671 48.5375L709.287 47.7495ZM699.334 42.6362L699.64 41.6841C695.85 40.4676 691.768 39.8638 687.403 39.8638V40.8638V41.8638C691.583 41.8638 695.456 42.4416 699.028 43.5884L699.334 42.6362ZM687.403 40.8638V39.8638C679.637 39.8638 672.717 41.8199 666.678 45.7523L667.224 46.5903L667.769 47.4283C673.456 43.7254 679.99 41.8638 687.403 41.8638V40.8638ZM667.224 46.5903L666.683 45.7494C660.634 49.6409 655.927 55.3471 652.542 62.8121L653.453 63.2251L654.364 63.638C657.615 56.4687 662.087 51.0843 667.765 47.4313L667.224 46.5903ZM653.453 63.2251L652.543 62.81C649.151 70.2462 647.477 79.2823 647.477 89.8813H648.477H649.477C649.477 79.483 651.12 70.7476 654.363 63.6402L653.453 63.2251ZM648.477 89.8813L647.477 89.8814C647.477 100.659 649.15 109.808 652.542 117.29L653.453 116.877L654.364 116.464C651.121 109.312 649.477 100.464 649.477 89.8813L648.477 89.8813ZM653.453 116.877L652.546 117.297C655.976 124.714 660.682 130.372 666.684 134.218L667.224 133.375L667.763 132.533C662.131 128.925 657.657 123.585 654.361 116.458L653.453 116.877ZM667.224 133.375L666.692 134.222C672.728 138.013 679.62 139.898 687.335 139.898V138.898V137.898C679.961 137.898 673.445 136.101 667.755 132.529L667.224 133.375ZM687.335 138.898V139.898C691.604 139.898 695.611 139.34 699.349 138.219L699.062 137.261L698.774 136.303C695.24 137.364 691.429 137.898 687.335 137.898V138.898ZM699.062 137.261L699.356 138.217C703.141 137.049 706.54 135.339 709.546 133.085L708.946 132.285L708.346 131.485C705.535 133.593 702.345 135.201 698.767 136.306L699.062 137.261ZM708.946 132.285L709.54 133.089C712.597 130.832 715.159 128.057 717.224 124.773L716.377 124.241L715.53 123.709C713.596 126.787 711.203 129.375 708.352 131.48L708.946 132.285ZM716.377 124.241L717.218 124.781C719.34 121.481 720.792 117.722 721.586 113.518L720.604 113.333L719.621 113.147C718.87 117.124 717.505 120.637 715.536 123.7L716.377 124.241ZM720.604 113.333L720.598 114.333L746.095 114.469L746.101 113.469L746.106 112.469L720.609 112.333L720.604 113.333ZM746.101 113.469L745.111 113.327C744.173 119.845 742.143 125.957 739.02 131.668L739.897 132.148L740.775 132.628C744.014 126.704 746.119 120.364 747.09 113.612L746.101 113.469ZM739.897 132.148L739.017 131.673C735.939 137.383 731.902 142.425 726.899 146.803L727.558 147.555L728.216 148.308C733.394 143.777 737.584 138.548 740.778 132.622L739.897 132.148ZM727.558 147.555L726.903 146.799C721.911 151.123 716.065 154.518 709.352 156.98L709.696 157.918L710.041 158.857C716.963 156.319 723.024 152.805 728.212 148.311L727.558 147.555ZM709.696 157.918L709.358 156.978C702.664 159.387 695.213 160.599 686.994 160.599V161.599V162.599C695.41 162.599 703.094 161.358 710.035 158.859L709.696 157.918ZM686.994 161.599V160.599C674.884 160.599 664.109 157.798 654.643 152.216L654.135 153.078L653.627 153.939C663.431 159.72 674.562 162.599 686.994 162.599V161.599ZM654.135 153.078L654.643 152.216C645.183 146.638 637.719 138.58 632.254 128.008L631.365 128.467L630.477 128.927C636.101 139.806 643.817 148.155 653.627 153.939L654.135 153.078ZM631.365 128.467L632.254 128.008C626.798 117.454 624.048 104.757 624.048 89.8813H623.048H622.048C622.048 105.001 624.843 118.028 630.477 128.927L631.365 128.467ZM623.048 89.8813H624.048C624.048 74.9599 626.82 62.2644 632.319 51.7582L631.433 51.2944L630.547 50.8307C624.865 61.6855 622.048 74.7155 622.048 89.8813H623.048ZM631.433 51.2944L632.319 51.7566C637.83 41.1826 645.318 33.1239 654.779 27.5455L654.271 26.6841L653.764 25.8227C643.954 31.6065 636.215 39.9544 630.546 50.8323L631.433 51.2944ZM654.271 26.6841L654.779 27.5455C664.247 21.9632 674.976 19.1626 686.994 19.1626V18.1626V17.1626C674.652 17.1626 663.566 20.043 653.764 25.8227L654.271 26.6841ZM293.62 159.692V158.692H268.328V159.692V160.692H293.62V159.692ZM268.328 159.692H269.328V20.0728H268.328H267.328V159.692H268.328ZM268.328 20.0728V21.0728H293.62V20.0728V19.0728H268.328V20.0728ZM293.62 20.0728H292.62V159.692H293.62H294.62V20.0728H293.62ZM903.093 159.692V158.692H878.414V159.692V160.692H903.093V159.692ZM878.414 159.692H879.414V20.0728H878.414H877.414V159.692H878.414ZM878.414 20.0728V21.0728H903.093V20.0728V19.0728H878.414V20.0728ZM903.093 20.0728H902.093V159.692H903.093H904.093V20.0728H903.093ZM370.773 53.4761V54.4761C372.105 54.4761 373.6 54.5423 375.26 54.6769L375.341 53.6802L375.422 52.6834C373.719 52.5454 372.169 52.4761 370.773 52.4761V53.4761ZM375.341 53.6802L375.288 54.6788C376.988 54.7682 378.368 54.9239 379.44 55.1383L379.636 54.1577L379.832 53.1771C378.631 52.9371 377.148 52.7739 375.393 52.6816L375.341 53.6802ZM379.636 54.1577H378.636V76.8589H379.636H380.636V54.1577H379.636ZM379.636 76.8589L379.964 75.9144C378.812 75.5135 377.063 75.1861 374.778 74.9119L374.659 75.9048L374.54 76.8977C376.8 77.1688 378.369 77.4771 379.307 77.8034L379.636 76.8589ZM374.659 75.9048L374.801 74.9148C372.53 74.5905 370.324 74.4272 368.183 74.4272V75.4272V76.4272C370.222 76.4272 372.334 76.5828 374.518 76.8947L374.659 75.9048ZM368.183 75.4272L368.183 74.4272C363.533 74.4273 359.321 75.4386 355.57 77.4806L356.048 78.3589L356.526 79.2372C359.955 77.3706 363.833 76.4273 368.183 76.4272L368.183 75.4272ZM356.048 78.3589L355.574 77.4784C351.872 79.4714 348.945 82.2561 346.806 85.821L347.663 86.3354L348.521 86.8499C350.472 83.5975 353.133 81.064 356.522 79.2394L356.048 78.3589ZM347.663 86.3354L346.806 85.821C344.656 89.4031 343.595 93.5164 343.595 98.1294H344.595H345.595C345.595 93.8344 346.579 90.0851 348.521 86.8499L347.663 86.3354ZM344.595 98.1294H343.595V159.69H344.595H345.595V98.1294H344.595ZM344.595 159.69V158.69H319.916V159.69V160.69H344.595V159.69ZM319.916 159.69H320.916V54.9751H319.916H318.916V159.69H319.916ZM319.916 54.9751V55.9751H343.845V54.9751V53.9751H319.916V54.9751ZM343.845 54.9751H342.845V72.4282H343.845H344.845V54.9751H343.845ZM343.845 72.4282V73.4282H344.936V72.4282V71.4282H343.845V72.4282ZM344.936 72.4282L345.889 72.7294C347.74 66.8675 350.893 62.4011 355.33 59.2696L354.753 58.4526L354.176 57.6357C349.341 61.0488 345.949 65.8995 343.982 72.1271L344.936 72.4282ZM354.753 58.4526L355.331 59.2685C359.835 56.0762 364.971 54.4761 370.773 54.4761V53.4761V52.4761C364.577 52.4761 359.033 54.1935 354.175 57.6368L354.753 58.4526ZM564.559 53.6118V54.6118C571.639 54.6119 577.756 56.1247 582.943 59.114L583.442 58.2476L583.942 57.3811C578.403 54.1895 571.93 52.6119 564.559 52.6118V53.6118ZM583.442 58.2476L582.946 59.1158C588.175 62.1035 592.223 66.4299 595.093 72.1272L595.986 71.6772L596.879 71.2273C593.842 65.199 589.527 60.5726 583.939 57.3793L583.442 58.2476ZM595.986 71.6772L595.096 72.1327C597.915 77.6419 599.37 84.3324 599.417 92.2409L600.417 92.2349L601.417 92.2289C601.368 84.0865 599.87 77.0718 596.877 71.2218L595.986 71.6772ZM600.417 92.2349H599.417V159.689H600.417H601.417V92.2349H600.417ZM600.417 159.689V158.689H575.738V159.689V160.689H600.417V159.689ZM575.738 159.689H576.738V96.8335H575.738H574.738V159.689H575.738ZM575.738 96.8335H576.738C576.738 89.6621 574.873 83.916 571.021 79.727L570.285 80.4038L569.549 81.0807C572.969 84.7997 574.738 90.0071 574.738 96.8335H575.738ZM570.285 80.4038L571.025 79.7316C567.209 75.5289 561.941 73.4722 555.354 73.4722V74.4722V75.4722C561.494 75.4722 566.18 77.3706 569.545 81.0761L570.285 80.4038ZM555.354 74.4722V73.4722C550.884 73.4722 546.87 74.4619 543.339 76.4658L543.833 77.3354L544.327 78.2051C547.522 76.3913 551.189 75.4722 555.354 75.4722V74.4722ZM543.833 77.3354L543.343 76.4636C539.85 78.4254 537.106 81.2729 535.113 84.9746L535.993 85.4487L536.874 85.9228C538.698 82.5346 541.18 79.9723 544.323 78.2073L543.833 77.3354ZM535.993 85.4487L535.108 84.9835C533.152 88.7044 532.198 93.1679 532.198 98.3335H533.198H534.198C534.198 93.4098 535.108 89.283 536.878 85.914L535.993 85.4487ZM533.198 98.3335H532.198V159.689H533.198H534.198V98.3335H533.198ZM533.198 159.689V158.689H508.52V159.689V160.689H533.198V159.689ZM508.52 159.689H509.52V54.9751H508.52H507.52V159.689H508.52ZM508.52 54.9751V55.9751H532.107V54.9751V53.9751H508.52V54.9751ZM532.107 54.9751H531.107V72.7681H532.107H533.107V54.9751H532.107ZM532.107 72.7681V73.7681H533.335V72.7681V71.7681H532.107V72.7681ZM533.335 72.7681L534.26 73.1481C536.592 67.4708 540.302 62.9718 545.404 59.6289L544.856 58.7925L544.308 57.956C538.867 61.5214 534.895 66.3396 532.41 72.388L533.335 72.7681ZM544.856 58.7925L545.401 59.6311C550.522 56.3046 556.89 54.6118 564.559 54.6118V53.6118V52.6118C556.593 52.6118 549.826 54.3724 544.312 57.9539L544.856 58.7925ZM828.982 109.787L828.347 109.015C827.736 109.517 826.58 110.063 824.748 110.599L825.029 111.559L825.31 112.519C827.204 111.964 828.683 111.328 829.618 110.559L828.982 109.787ZM825.029 111.559L824.742 110.601C822.967 111.134 820.959 111.603 818.716 112.007L818.894 112.991L819.071 113.975C821.373 113.561 823.456 113.075 825.317 112.517L825.029 111.559ZM818.894 112.991L818.716 112.007C816.456 112.413 814.218 112.775 812.003 113.092L812.145 114.082L812.286 115.071C814.525 114.752 816.787 114.386 819.071 113.975L818.894 112.991ZM812.145 114.082L812.003 113.092C809.777 113.41 807.847 113.681 806.212 113.908L806.35 114.899L806.487 115.889C808.125 115.662 810.058 115.39 812.286 115.071L812.145 114.082ZM806.35 114.899L806.215 113.908C802.47 114.417 799.095 115.252 796.1 116.422L796.464 117.353L796.828 118.284C799.65 117.182 802.867 116.381 806.484 115.89L806.35 114.899ZM796.464 117.353L796.1 116.422C793.061 117.609 790.615 119.291 788.807 121.49L789.579 122.125L790.352 122.761C791.907 120.869 794.05 119.37 796.828 118.284L796.464 117.353ZM789.579 122.125L788.814 121.482C786.95 123.699 786.057 126.533 786.057 129.897L787.057 129.897L788.057 129.897C788.057 126.898 788.846 124.552 790.344 122.769L789.579 122.125ZM787.057 129.897H786.057C786.057 134.722 787.839 138.481 791.461 141.012L792.033 140.192L792.606 139.372C789.592 137.267 788.057 134.162 788.057 129.897H787.057ZM792.033 140.192L791.461 141.012C794.986 143.475 799.428 144.668 804.713 144.668V143.668V142.668C799.727 142.668 795.715 141.544 792.606 139.372L792.033 140.192ZM804.713 143.668V144.668C809.799 144.668 814.263 143.664 818.071 141.618L817.598 140.737L817.124 139.856C813.66 141.718 809.534 142.668 804.713 142.668V143.668ZM817.598 140.737L818.08 141.613C821.857 139.536 824.789 136.78 826.842 133.341L825.983 132.829L825.125 132.316C823.27 135.422 820.61 137.939 817.116 139.861L817.598 140.737ZM825.983 132.829L826.837 133.35C828.933 129.92 829.982 126.171 829.982 122.125H828.982H827.982C827.982 125.806 827.033 129.193 825.13 132.307L825.983 132.829ZM828.982 122.125H829.982V109.787H828.982H827.982V122.125H828.982ZM437.536 73.1772L437.536 72.1772C431.664 72.1773 426.702 73.7791 422.723 77.0394L423.356 77.813L423.99 78.5865C427.555 75.666 432.046 74.1773 437.536 74.1772L437.536 73.1772ZM423.356 77.813L422.718 77.0432C418.834 80.2644 415.945 84.5822 414.03 89.9528L414.972 90.2886L415.914 90.6244C417.726 85.542 420.426 81.5425 423.995 78.5827L423.356 77.813ZM414.972 90.2886L414.028 89.9575C412.167 95.2611 411.244 101.171 411.244 107.673H412.244H413.244C413.244 101.359 414.14 95.6784 415.915 90.6197L414.972 90.2886ZM412.244 107.673L411.244 107.673C411.244 114.131 412.167 120.017 414.028 125.32L414.972 124.989L415.915 124.658C414.14 119.598 413.244 113.941 413.244 107.673L412.244 107.673ZM414.972 124.989L414.031 125.327C415.946 130.653 418.836 134.947 422.718 138.167L423.356 137.397L423.995 136.627C420.424 133.666 417.724 129.687 415.913 124.65L414.972 124.989ZM423.356 137.397L422.728 138.175C426.708 141.387 431.668 142.964 437.536 142.964L437.536 141.964L437.536 140.964C432.043 140.964 427.549 139.496 423.985 136.619L423.356 137.397ZM437.536 141.964V142.964C443.275 142.964 448.145 141.384 452.077 138.171L451.444 137.397L450.812 136.623C447.29 139.5 442.887 140.964 437.536 140.964V141.964ZM451.444 137.397L452.083 138.167C455.967 134.945 458.835 130.649 460.704 125.32L459.761 124.989L458.817 124.658C457.051 129.691 454.375 133.667 450.806 136.627L451.444 137.397ZM459.761 124.989L460.702 125.327C462.61 120.022 463.557 114.134 463.557 107.673L462.557 107.673L461.557 107.673C461.557 113.938 460.639 119.593 458.82 124.65L459.761 124.989ZM462.557 107.673H463.557C463.557 101.168 462.61 95.256 460.702 89.9501L459.761 90.2886L458.82 90.627C460.638 95.6835 461.557 101.362 461.557 107.673H462.557ZM459.761 90.2886L460.705 89.96C458.836 84.5866 455.969 80.266 452.083 77.0432L451.444 77.813L450.806 78.5827C454.373 81.5409 457.049 85.5377 458.816 90.6171L459.761 90.2886ZM451.444 77.813L452.083 77.0432C448.151 73.7825 443.278 72.1772 437.536 72.1772V73.1772V74.1772C442.884 74.1772 447.284 75.6624 450.806 78.5827L451.444 77.813Z" fill="#E0E0E0" mask="url(#path-6-inside-1_3085_9222)"/>
</g>
<defs>
<clipPath id="clip0_3085_9222">
<rect width="1019" height="179" fill="white"/>
</clipPath>
</defs>
</svg>
