<svg width="1554" height="1323" viewBox="0 0 1554 1323" fill="none" xmlns="http://www.w3.org/2000/svg">
<path d="M0 967.615C256.73 967.615 502.944 865.67 684.479 684.207C866.014 502.744 968 256.627 968 0V1323M0 586.914C155.721 586.914 305.064 525.078 415.176 415.011C525.288 304.943 587.148 155.659 587.148 0" stroke="#E0E0E0" stroke-width="2" stroke-dasharray="4 4"/>
<path d="M1554 355.385C1297.27 355.385 1051.06 457.33 869.521 638.793C687.986 820.256 586 1066.37 586 1323V0M1554 736.086C1398.28 736.086 1248.94 797.922 1138.82 907.989C1028.71 1018.06 966.852 1167.34 966.852 1323" stroke="#E0E0E0" stroke-width="2" stroke-dasharray="4 4"/>
</svg>
