<svg width="16" height="16" viewBox="0 0 16 16" fill="none" xmlns="http://www.w3.org/2000/svg">
<path fill-rule="evenodd" clip-rule="evenodd" d="M8.16223 7.346C8.11832 7.51485 7.95406 7.62337 7.78151 7.59753C6.89887 7.46051 6.06015 7.01569 5.44145 6.27836C4.08545 4.6624 4.29655 2.24956 5.91258 0.893584C7.52858 -0.46239 9.94147 -0.251295 11.2975 1.36467C11.9162 2.10199 12.2086 3.00519 12.1903 3.89823C12.1857 4.07264 12.0503 4.21549 11.8764 4.22939C11.7208 4.24303 11.5657 4.26523 11.4118 4.29609C11.3089 4.31714 11.2022 4.2896 11.1223 4.22144C11.0425 4.15331 10.9986 4.05217 11.0032 3.94732C11.034 3.30762 10.8335 2.6551 10.3898 2.12632C9.45416 1.0113 7.78927 0.865624 6.67422 1.80122C5.55917 2.73686 5.41349 4.40172 6.34915 5.51674C6.79286 6.04556 7.40063 6.35633 8.03598 6.43713C8.14002 6.45076 8.23198 6.51158 8.28523 6.60199C8.33845 6.6924 8.34703 6.80231 8.30848 6.89991C8.25144 7.04616 8.20262 7.19508 8.16223 7.346Z" fill="#74AA00"/>
<path fill-rule="evenodd" clip-rule="evenodd" d="M8.1595 2.63806C8.81288 2.52286 9.43683 2.95976 9.55203 3.61309C9.66724 4.26642 9.23033 4.89039 8.57698 5.0056C7.9236 5.1208 7.29965 4.6839 7.18445 4.03053C7.06924 3.3772 7.50615 2.75326 8.1595 2.63806Z" fill="black"/>
<path fill-rule="evenodd" clip-rule="evenodd" d="M8.65378 8.16215C8.48493 8.11824 8.37637 7.95399 8.40224 7.78144C8.53923 6.89882 8.9841 6.06012 9.72144 5.44143C11.3374 4.08546 13.7503 4.29655 15.1063 5.91255C16.4623 7.52852 16.2512 9.94136 14.6352 11.2973C13.8979 11.916 12.9946 12.2084 12.1016 12.1901C11.9272 12.1856 11.7843 12.0502 11.7704 11.8763C11.7568 11.7207 11.7346 11.5655 11.7038 11.4116C11.6827 11.3088 11.7102 11.202 11.7784 11.1222C11.8465 11.0424 11.9477 10.9985 12.0525 11.0031C12.6922 11.0339 13.3447 10.8334 13.8736 10.3897C14.9886 9.45405 15.1343 7.7892 14.1986 6.67417C13.263 5.55915 11.5981 5.41347 10.4831 6.34911C9.95424 6.79281 9.64346 7.40057 9.56263 8.0359C9.54904 8.13994 9.48821 8.2319 9.3978 8.28515C9.30735 8.33837 9.19744 8.34694 9.09988 8.3084C8.95363 8.25136 8.80467 8.20255 8.65378 8.16215Z" fill="#74AA00"/>
<path fill-rule="evenodd" clip-rule="evenodd" d="M13.3626 8.16094C13.4778 8.81431 13.0409 9.43825 12.3875 9.55345C11.7341 9.66865 11.1102 9.23175 10.995 8.57842C10.8798 7.92505 11.3167 7.30111 11.97 7.18591C12.6234 7.07071 13.2474 7.50761 13.3626 8.16094Z" fill="black"/>
<path fill-rule="evenodd" clip-rule="evenodd" d="M7.83745 8.65328C7.88132 8.48444 8.04557 8.37588 8.21813 8.40175C9.1008 8.53874 9.93952 8.9836 10.5582 9.72092C11.9142 11.3369 11.7031 13.7497 10.0871 15.1057C8.47109 16.4617 6.0582 16.2506 4.7022 14.6346C4.0835 13.8973 3.79103 12.9941 3.80941 12.1011C3.81393 11.9266 3.94929 11.7838 4.12324 11.7699C4.27884 11.7563 4.43398 11.7341 4.58792 11.7032C4.69073 11.6821 4.79751 11.7097 4.8773 11.7778C4.95713 11.846 5.00108 11.9471 4.99641 12.052C4.96559 12.6917 5.16615 13.3441 5.60986 13.873C6.54551 14.988 8.2104 15.1337 9.32546 14.198C10.4405 13.2624 10.5861 11.5976 9.65052 10.4825C9.20677 9.95372 8.599 9.64295 7.96366 9.56212C7.85962 9.54852 7.76766 9.4877 7.71444 9.39729C7.66118 9.30684 7.65261 9.19693 7.69119 9.09938C7.74823 8.95313 7.79705 8.80417 7.83745 8.65328Z" fill="#74AA00"/>
<path fill-rule="evenodd" clip-rule="evenodd" d="M7.84062 13.3616C7.18728 13.4768 6.56332 13.0399 6.44812 12.3865C6.33291 11.7332 6.76979 11.1092 7.42317 10.994C8.07651 10.8788 8.7005 11.3157 8.81571 11.969C8.93091 12.6224 8.494 13.2464 7.84062 13.3616Z" fill="black"/>
<path fill-rule="evenodd" clip-rule="evenodd" d="M7.34616 7.83736C7.51501 7.88123 7.62353 8.04548 7.59769 8.21803C7.46067 9.10069 7.01584 9.93939 6.2785 10.5581C4.6625 11.914 2.24961 11.7029 0.893604 10.087C-0.4624 8.47099 -0.251301 6.05815 1.3647 4.70218C2.10204 4.08349 3.00526 3.79103 3.89832 3.80941C4.07273 3.81393 4.21558 3.94929 4.22949 4.12323C4.24312 4.27883 4.26533 4.43397 4.29618 4.5879C4.31723 4.69071 4.2897 4.79749 4.22153 4.87728C4.1534 4.95711 4.05226 5.00106 3.9474 4.99638C3.30769 4.96557 2.65516 5.16612 2.12637 5.60982C1.01132 6.54546 0.865642 8.21031 1.80126 9.32534C2.73692 10.4404 4.40181 10.586 5.51686 9.6504C6.04569 9.20666 6.35647 8.5989 6.43726 7.96357C6.4509 7.85953 6.51172 7.76758 6.60214 7.71436C6.69255 7.6611 6.80246 7.65253 6.90005 7.69111C7.04631 7.74815 7.19523 7.79696 7.34616 7.83736Z" fill="#74AA00"/>
<path fill-rule="evenodd" clip-rule="evenodd" d="M2.63757 7.83912C2.52237 7.18579 2.95928 6.56186 3.61262 6.44665C4.26596 6.33145 4.88995 6.76832 5.00516 7.42168C5.12036 8.07501 4.68345 8.69899 4.03007 8.81419C3.37673 8.92939 2.75278 8.49249 2.63757 7.83912Z" fill="black"/>
</svg>
