<?xml version="1.0" encoding="UTF-8" standalone="no"?><!DOCTYPE svg PUBLIC "-//W3C//DTD SVG 1.1//EN" "http://www.w3.org/Graphics/SVG/1.1/DTD/svg11.dtd"><svg width="1086px" height="415px" version="1.1" xmlns="http://www.w3.org/2000/svg" xmlns:xlink="http://www.w3.org/1999/xlink" xml:space="preserve" xmlns:serif="http://www.serif.com/" style="fill-rule:evenodd;clip-rule:evenodd;stroke-linejoin:round;stroke-miterlimit:2;"><g><g><g><path d="M211.345,190.214c-1.137,4.372 -5.39,7.182 -9.858,6.513c-22.854,-3.548 -44.571,-15.066 -60.591,-34.158c-35.111,-41.843 -29.645,-104.32 12.199,-139.431c41.843,-35.111 104.32,-29.645 139.431,12.198c16.02,19.092 23.592,42.479 23.117,65.603c-0.117,4.516 -3.623,8.215 -8.126,8.575c-4.029,0.353 -8.046,0.928 -12.032,1.727c-2.662,0.545 -5.427,-0.168 -7.494,-1.933c-2.066,-1.764 -3.204,-4.383 -3.084,-7.098c0.798,-16.564 -4.394,-33.46 -15.884,-47.152c-24.226,-28.872 -67.335,-32.644 -96.207,-8.418c-28.872,24.227 -32.644,67.336 -8.417,96.208c11.489,13.693 27.226,21.74 43.677,23.832c2.694,0.353 5.075,1.928 6.454,4.269c1.378,2.341 1.6,5.187 0.602,7.714c-1.477,3.787 -2.741,7.643 -3.787,11.551Z" style="fill:#74aa00;"/><path d="M211.306,68.301c16.918,-2.983 33.074,8.33 36.057,25.247c2.983,16.917 -8.33,33.074 -25.247,36.057c-16.918,2.983 -33.074,-8.33 -36.057,-25.248c-2.983,-16.917 8.33,-33.073 25.247,-36.056Z"/></g><g><path d="M224.072,211.345c-4.372,-1.137 -7.183,-5.39 -6.513,-9.858c3.547,-22.854 15.066,-44.571 34.158,-60.591c41.843,-35.111 104.32,-29.645 139.431,12.199c35.111,41.843 29.645,104.32 -12.199,139.431c-19.091,16.02 -42.479,23.592 -65.602,23.117c-4.516,-0.117 -8.216,-3.623 -8.576,-8.126c-0.352,-4.029 -0.927,-8.046 -1.726,-12.032c-0.545,-2.662 0.168,-5.427 1.933,-7.494c1.764,-2.066 4.383,-3.204 7.098,-3.084c16.564,0.798 33.459,-4.394 47.152,-15.884c28.872,-24.226 32.644,-67.335 8.417,-96.207c-24.226,-28.872 -67.335,-32.644 -96.207,-8.417c-13.693,11.489 -21.74,27.226 -23.833,43.677c-0.352,2.694 -1.927,5.075 -4.268,6.454c-2.342,1.378 -5.188,1.6 -7.714,0.602c-3.787,-1.477 -7.644,-2.741 -11.551,-3.787Z" style="fill:#74aa00;"/><path d="M345.985,211.306c2.983,16.918 -8.33,33.074 -25.247,36.057c-16.918,2.983 -33.074,-8.33 -36.057,-25.247c-2.983,-16.918 8.33,-33.074 25.247,-36.057c16.918,-2.983 33.074,8.33 36.057,25.247Z"/></g><g><path d="M202.941,224.072c1.136,-4.372 5.389,-7.183 9.857,-6.513c22.855,3.547 44.572,15.066 60.592,34.158c35.11,41.843 29.644,104.32 -12.199,139.431c-41.843,35.111 -104.32,29.645 -139.431,-12.199c-16.02,-19.091 -23.593,-42.479 -23.117,-65.602c0.117,-4.516 3.622,-8.216 8.126,-8.576c4.029,-0.352 8.046,-0.927 12.032,-1.726c2.662,-0.545 5.427,0.168 7.493,1.933c2.067,1.764 3.205,4.383 3.084,7.098c-0.798,16.564 4.395,33.459 15.884,47.152c24.227,28.872 67.336,32.644 96.208,8.417c28.872,-24.226 32.643,-67.335 8.417,-96.207c-11.49,-13.693 -27.227,-21.74 -43.678,-23.833c-2.694,-0.352 -5.075,-1.927 -6.453,-4.268c-1.379,-2.342 -1.601,-5.188 -0.602,-7.714c1.477,-3.787 2.741,-7.644 3.787,-11.551Z" style="fill:#74aa00;"/><path d="M202.979,345.985c-16.917,2.983 -33.073,-8.33 -36.056,-25.247c-2.983,-16.918 8.329,-33.074 25.247,-36.057c16.917,-2.983 33.074,8.33 36.057,25.247c2.983,16.918 -8.33,33.074 -25.248,36.057Z"/></g><g><path d="M190.214,202.941c4.372,1.136 7.182,5.389 6.513,9.857c-3.548,22.855 -15.066,44.572 -34.158,60.592c-41.843,35.11 -104.32,29.644 -139.431,-12.199c-35.111,-41.843 -29.645,-104.32 12.198,-139.431c19.092,-16.02 42.479,-23.593 65.603,-23.117c4.516,0.117 8.215,3.622 8.575,8.126c0.353,4.029 0.928,8.046 1.727,12.032c0.545,2.662 -0.168,5.427 -1.933,7.493c-1.764,2.067 -4.383,3.205 -7.098,3.084c-16.564,-0.798 -33.46,4.395 -47.152,15.884c-28.872,24.227 -32.644,67.336 -8.418,96.208c24.227,28.872 67.336,32.643 96.208,8.417c13.693,-11.49 21.74,-27.227 23.832,-43.678c0.353,-2.694 1.928,-5.075 4.269,-6.453c2.341,-1.379 5.187,-1.601 7.714,-0.602c3.787,1.477 7.643,2.741 11.551,3.787Z" style="fill:#74aa00;"/><path d="M68.301,202.979c-2.983,-16.917 8.33,-33.073 25.247,-36.056c16.917,-2.983 33.074,8.329 36.057,25.247c2.983,16.917 -8.33,33.074 -25.248,36.057c-16.917,2.983 -33.073,-8.33 -36.056,-25.248Z"/></g></g><g><g><path d="M467.416,274.709c-1.713,-0 -3.169,-0.6 -4.368,-1.799c-1.199,-1.199 -1.798,-2.654 -1.798,-4.367l0,-121.259c0,-1.713 0.599,-3.169 1.798,-4.368c1.199,-1.199 2.655,-1.798 4.368,-1.798l21.066,-0c1.713,-0 3.168,0.599 4.367,1.798c1.199,1.199 1.799,2.655 1.799,4.368l-0,10.533c4.453,-5.481 10.147,-10.062 17.084,-13.745c6.936,-3.682 15.543,-5.523 25.819,-5.523c10.447,-0 19.525,2.355 27.232,7.065c7.707,4.71 13.659,11.346 17.855,19.91c4.196,8.563 6.294,18.84 6.294,30.829l0,72.19c0,1.713 -0.599,3.168 -1.798,4.367c-1.199,1.199 -2.655,1.799 -4.368,1.799l-22.607,-0c-1.713,-0 -3.169,-0.6 -4.368,-1.799c-1.199,-1.199 -1.798,-2.654 -1.798,-4.367l-0,-70.649c-0,-9.934 -2.441,-17.727 -7.322,-23.378c-4.881,-5.652 -11.946,-8.478 -21.195,-8.478c-8.906,-0 -16.013,2.826 -21.323,8.478c-5.309,5.651 -7.964,13.444 -7.964,23.378l0,70.649c0,1.713 -0.599,3.168 -1.798,4.367c-1.199,1.199 -2.655,1.799 -4.368,1.799l-22.607,-0Z" style="fill:#231f20;fill-rule:nonzero;"/><path d="M627.982,274.709c-1.713,-0 -3.169,-0.6 -4.368,-1.799c-1.199,-1.199 -1.798,-2.654 -1.798,-4.367l-0,-170.071c-0,-1.713 0.599,-3.169 1.798,-4.368c1.199,-1.199 2.655,-1.798 4.368,-1.798l21.323,-0c1.713,-0 3.168,0.599 4.367,1.798c1.199,1.199 1.799,2.655 1.799,4.368l-0,170.071c-0,1.713 -0.6,3.168 -1.799,4.367c-1.199,1.199 -2.654,1.799 -4.367,1.799l-21.323,-0Z" style="fill:#231f20;fill-rule:nonzero;"/><path d="M695.805,274.709c-1.713,-0 -3.169,-0.6 -4.368,-1.799c-1.199,-1.199 -1.798,-2.654 -1.798,-4.367l0,-121.259c0,-1.713 0.599,-3.169 1.798,-4.368c1.199,-1.199 2.655,-1.798 4.368,-1.798l21.066,-0c1.713,-0 3.169,0.599 4.367,1.798c1.199,1.199 1.799,2.655 1.799,4.368l-0,10.533c4.453,-5.481 10.147,-10.062 17.084,-13.745c6.936,-3.682 15.543,-5.523 25.819,-5.523c10.447,-0 19.525,2.355 27.232,7.065c7.707,4.71 13.659,11.346 17.855,19.91c4.196,8.563 6.294,18.84 6.294,30.829l0,72.19c0,1.713 -0.599,3.168 -1.798,4.367c-1.199,1.199 -2.655,1.799 -4.368,1.799l-22.607,-0c-1.713,-0 -3.169,-0.6 -4.368,-1.799c-1.199,-1.199 -1.798,-2.654 -1.798,-4.367l-0,-70.649c-0,-9.934 -2.441,-17.727 -7.322,-23.378c-4.881,-5.652 -11.946,-8.478 -21.195,-8.478c-8.906,-0 -16.013,2.826 -21.323,8.478c-5.309,5.651 -7.964,13.444 -7.964,23.378l0,70.649c0,1.713 -0.599,3.168 -1.798,4.367c-1.199,1.199 -2.655,1.799 -4.368,1.799l-22.607,-0Z" style="fill:#74aa00;fill-rule:nonzero;"/><path d="M907.495,277.278c-19.011,-0 -34.083,-5.481 -45.215,-16.442c-11.133,-10.961 -17.128,-26.547 -17.984,-46.757c-0.171,-1.713 -0.257,-3.896 -0.257,-6.551c0,-2.655 0.086,-4.753 0.257,-6.294c0.685,-13.017 3.64,-24.192 8.863,-33.526c5.224,-9.335 12.46,-16.528 21.709,-21.581c9.248,-5.052 20.124,-7.578 32.627,-7.578c13.873,-0 25.519,2.869 34.939,8.606c9.42,5.738 16.528,13.702 21.323,23.892c4.796,10.191 7.194,21.966 7.194,35.325l-0,5.395c-0,1.713 -0.6,3.168 -1.799,4.367c-1.199,1.199 -2.74,1.799 -4.624,1.799l-85.293,-0l0,2.055c0.172,5.994 1.328,11.518 3.469,16.57c2.14,5.053 5.309,9.12 9.505,12.203c4.196,3.083 9.206,4.625 15.029,4.625c4.796,-0 8.82,-0.728 12.075,-2.184c3.254,-1.456 5.908,-3.126 7.964,-5.01c2.055,-1.884 3.511,-3.425 4.367,-4.624c1.541,-2.055 2.783,-3.297 3.725,-3.725c0.942,-0.428 2.355,-0.642 4.239,-0.642l22.094,-0c1.713,-0 3.126,0.513 4.239,1.541c1.113,1.028 1.584,2.312 1.413,3.854c-0.171,2.74 -1.584,6.08 -4.239,10.019c-2.655,3.939 -6.466,7.793 -11.432,11.561c-4.967,3.768 -11.176,6.893 -18.626,9.377c-7.45,2.483 -15.971,3.725 -25.562,3.725Zm-28.26,-80.925l56.776,-0l0,-0.771c0,-6.68 -1.113,-12.546 -3.339,-17.598c-2.227,-5.053 -5.481,-8.992 -9.763,-11.818c-4.282,-2.826 -9.42,-4.239 -15.414,-4.239c-5.995,0 -11.133,1.413 -15.414,4.239c-4.282,2.826 -7.494,6.765 -9.634,11.818c-2.141,5.052 -3.212,10.918 -3.212,17.598l0,0.771Z" style="fill:#74aa00;fill-rule:nonzero;"/><path d="M1058.04,274.709c-10.277,-0 -18.926,-1.799 -25.948,-5.395c-7.022,-3.597 -12.246,-8.949 -15.671,-16.057c-3.426,-7.108 -5.138,-15.971 -5.138,-26.59l-0,-58.317l-20.296,-0c-1.713,-0 -3.168,-0.6 -4.367,-1.799c-1.199,-1.198 -1.799,-2.74 -1.799,-4.624l0,-14.643c0,-1.713 0.6,-3.169 1.799,-4.368c1.199,-1.199 2.654,-1.798 4.367,-1.798l20.296,-0l-0,-42.646c-0,-1.713 0.556,-3.169 1.67,-4.368c1.113,-1.199 2.611,-1.798 4.495,-1.798l20.81,-0c1.713,-0 3.168,0.599 4.367,1.798c1.199,1.199 1.799,2.655 1.799,4.368l-0,42.646l32.113,-0c1.712,-0 3.168,0.599 4.367,1.798c1.199,1.199 1.798,2.655 1.798,4.368l0,14.643c0,1.884 -0.599,3.426 -1.798,4.624c-1.199,1.199 -2.655,1.799 -4.367,1.799l-32.113,-0l-0,55.748c-0,7.022 1.241,12.503 3.725,16.442c2.483,3.939 6.808,5.909 12.973,5.909l17.727,0c1.713,0 3.168,0.6 4.367,1.798c1.199,1.199 1.799,2.655 1.799,4.368l-0,15.928c-0,1.713 -0.6,3.168 -1.799,4.367c-1.199,1.199 -2.654,1.799 -4.367,1.799l-20.809,-0Z" style="fill:#74aa00;fill-rule:nonzero;"/></g></g></g></svg>