<svg width="70" height="27" viewBox="0 0 70 27" fill="none" xmlns="http://www.w3.org/2000/svg">
<g clip-path="url(#clip0_2981_64294)">
<path fill-rule="evenodd" clip-rule="evenodd" d="M13.6222 12.3754C13.5489 12.6598 13.2747 12.8426 12.9867 12.7991C11.5136 12.5683 10.1138 11.8189 9.08124 10.5768C6.8181 7.85447 7.17042 3.7897 9.86755 1.50537C12.5646 -0.778961 16.5917 -0.423342 18.8548 2.29897C19.8874 3.5411 20.3755 5.06267 20.3449 6.56712C20.3373 6.86093 20.1113 7.10159 19.8211 7.12501C19.5614 7.14798 19.3025 7.18539 19.0455 7.23737C18.874 7.27283 18.6957 7.22644 18.5625 7.11161C18.4293 6.99684 18.356 6.82645 18.3637 6.64981C18.4152 5.57215 18.0805 4.4729 17.3399 3.58209C15.7784 1.70367 12.9997 1.45827 11.1387 3.03441C9.27771 4.61063 9.03458 7.41531 10.5962 9.29373C11.3367 10.1846 12.3511 10.7081 13.4114 10.8442C13.5851 10.8672 13.7386 10.9697 13.8274 11.122C13.9163 11.2743 13.9306 11.4595 13.8663 11.6239C13.771 11.8702 13.6896 12.1211 13.6222 12.3754Z" fill="#74AA00"/>
<path fill-rule="evenodd" clip-rule="evenodd" d="M13.62 4.44364C14.7105 4.24957 15.7519 4.9856 15.9441 6.08622C16.1364 7.18684 15.4072 8.23802 14.3168 8.4321C13.2263 8.62617 12.1849 7.89015 11.9927 6.78946C11.8004 5.68883 12.5296 4.63772 13.62 4.44364Z" fill="black"/>
<path fill-rule="evenodd" clip-rule="evenodd" d="M14.4428 13.7502C14.161 13.6762 13.9798 13.3995 14.023 13.1088C14.2516 11.6219 14.9941 10.209 16.2247 9.16674C18.9217 6.88241 22.9488 7.23803 25.2119 9.96041C27.4751 12.6827 27.1227 16.7475 24.4256 19.0318C23.1951 20.0741 21.6876 20.5667 20.1971 20.5358C19.906 20.5282 19.6676 20.3001 19.6444 20.0071C19.6217 19.745 19.5846 19.4837 19.5331 19.2243C19.498 19.0511 19.5439 18.8713 19.6577 18.7368C19.7714 18.6024 19.9402 18.5283 20.1152 18.5361C21.1829 18.588 22.2719 18.2503 23.1545 17.5027C25.0155 15.9266 25.2586 13.1219 23.697 11.2435C22.1355 9.36504 19.3568 9.11964 17.4958 10.6959C16.6132 11.4433 16.0945 12.4672 15.9596 13.5375C15.9369 13.7128 15.8354 13.8677 15.6845 13.9574C15.5336 14.047 15.3501 14.0615 15.1873 13.9966C14.9432 13.9005 14.6946 13.8182 14.4428 13.7502Z" fill="#74AA00"/>
<path fill-rule="evenodd" clip-rule="evenodd" d="M22.3006 13.7476C22.4928 14.8483 21.7636 15.8994 20.6732 16.0935C19.5828 16.2875 18.5414 15.5515 18.3491 14.4509C18.1568 13.3502 18.886 12.2991 19.9765 12.105C21.0669 11.9109 22.1083 12.647 22.3006 13.7476Z" fill="black"/>
<path fill-rule="evenodd" clip-rule="evenodd" d="M13.0805 14.5782C13.1537 14.2938 13.4279 14.1109 13.7159 14.1545C15.189 14.3852 16.5888 15.1347 17.6214 16.3768C19.8845 19.0991 19.5322 23.1639 16.8351 25.4482C14.1381 27.7326 10.111 27.3769 7.84785 24.6546C6.81525 23.4125 6.32712 21.8909 6.35781 20.3865C6.36535 20.0927 6.59127 19.8519 6.88158 19.8285C7.14128 19.8056 7.4002 19.7682 7.65712 19.7162C7.82871 19.6808 8.00693 19.7271 8.1401 19.842C8.27333 19.9567 8.34668 20.1271 8.33888 20.3038C8.28745 21.3814 8.62217 22.4806 9.36271 23.3715C10.9243 25.2499 13.703 25.4953 15.564 23.9191C17.425 22.343 17.668 19.5383 16.1065 17.6599C15.3659 16.769 14.3515 16.2455 13.2912 16.1093C13.1175 16.0864 12.964 15.9839 12.8752 15.8316C12.7863 15.6792 12.772 15.4941 12.8364 15.3297C12.9316 15.0833 13.0131 14.8324 13.0805 14.5782Z" fill="#74AA00"/>
<path fill-rule="evenodd" clip-rule="evenodd" d="M13.0833 22.5099C11.9929 22.7039 10.9516 21.9679 10.7593 20.8673C10.567 19.7666 11.2961 18.7155 12.3866 18.5214C13.477 18.3273 14.5185 19.0634 14.7107 20.164C14.903 21.2647 14.1738 22.3158 13.0833 22.5099Z" fill="black"/>
<path fill-rule="evenodd" clip-rule="evenodd" d="M12.2606 13.2034C12.5424 13.2773 12.7235 13.554 12.6804 13.8447C12.4517 15.3317 11.7093 16.7446 10.4787 17.7868C7.78161 20.0711 3.75455 19.7155 1.4914 16.9932C-0.771735 14.2709 -0.419415 10.2061 2.27765 7.92175C3.50826 6.87949 5.01571 6.38679 6.5062 6.41775C6.79729 6.42537 7.03572 6.6534 7.05892 6.94643C7.08167 7.20856 7.11873 7.46991 7.17024 7.72924C7.20536 7.90243 7.15941 8.08232 7.04564 8.21674C6.93194 8.35121 6.76313 8.42525 6.58813 8.41738C5.52047 8.36546 4.43141 8.70332 3.54886 9.4508C1.68787 11.027 1.44474 13.8317 3.00627 15.7101C4.56786 17.5885 7.34653 17.8339 9.20752 16.2577C10.0901 15.5102 10.6088 14.4863 10.7437 13.416C10.7664 13.2408 10.8679 13.0858 11.0188 12.9962C11.1697 12.9065 11.3532 12.892 11.516 12.957C11.7601 13.0531 12.0087 13.1354 12.2606 13.2034Z" fill="#74AA00"/>
<path fill-rule="evenodd" clip-rule="evenodd" d="M4.40283 13.2058C4.21055 12.1052 4.93975 11.0541 6.03017 10.86C7.12058 10.666 8.16201 11.4019 8.35428 12.5026C8.54656 13.6032 7.81736 14.6544 6.72688 14.8485C5.63647 15.0426 4.5951 14.3065 4.40283 13.2058Z" fill="black"/>
<path d="M30.1279 16.8967C30.0175 16.8967 29.9236 16.8577 29.8464 16.7796C29.7691 16.7016 29.7305 16.607 29.7305 16.4955V8.60639C29.7305 8.49494 29.7691 8.40021 29.8464 8.3222C29.9236 8.2442 30.0175 8.20523 30.1279 8.20523H31.4858C31.5962 8.20523 31.69 8.2442 31.7672 8.3222C31.8445 8.40021 31.8832 8.49494 31.8832 8.60639V9.29167C32.1702 8.93507 32.5372 8.63703 32.9844 8.39741C33.4314 8.15786 33.9862 8.03809 34.6486 8.03809C35.322 8.03809 35.9071 8.1913 36.4039 8.49774C36.9006 8.80417 37.2843 9.23591 37.5547 9.79309C37.8252 10.3502 37.9604 11.0188 37.9604 11.7988V16.4955C37.9604 16.607 37.9218 16.7016 37.8445 16.7796C37.7673 16.8577 37.6734 16.8967 37.563 16.8967H36.1058C35.9954 16.8967 35.9016 16.8577 35.8243 16.7796C35.747 16.7016 35.7084 16.607 35.7084 16.4955V11.8991C35.7084 11.2528 35.551 10.7458 35.2364 10.3781C34.9218 10.0104 34.4664 9.82653 33.8703 9.82653C33.2962 9.82653 32.8381 10.0104 32.4959 10.3781C32.1537 10.7458 31.9825 11.2528 31.9825 11.8991V16.4955C31.9825 16.607 31.9439 16.7016 31.8666 16.7796C31.7893 16.8577 31.6955 16.8967 31.5851 16.8967H30.1279Z" fill="#231F20"/>
<path d="M40.4775 16.8967C40.3671 16.8967 40.2733 16.8577 40.196 16.7797C40.1187 16.7017 40.0801 16.607 40.0801 16.4956V5.4307C40.0801 5.31925 40.1187 5.22453 40.196 5.14652C40.2733 5.06851 40.3671 5.02954 40.4775 5.02954H41.8519C41.9623 5.02954 42.0561 5.06851 42.1334 5.14652C42.2107 5.22453 42.2494 5.31925 42.2494 5.4307V16.4956C42.2494 16.607 42.2107 16.7017 42.1334 16.7797C42.0561 16.8577 41.9623 16.8967 41.8519 16.8967H40.4775Z" fill="#231F20"/>
<path d="M44.8496 16.8967C44.7392 16.8967 44.6453 16.8577 44.568 16.7796C44.4908 16.7016 44.4521 16.607 44.4521 16.4955V8.60639C44.4521 8.49494 44.4908 8.40021 44.568 8.3222C44.6453 8.2442 44.7392 8.20523 44.8496 8.20523H46.2074C46.3178 8.20523 46.4117 8.2442 46.4889 8.3222C46.5662 8.40021 46.6049 8.49494 46.6049 8.60639V9.29167C46.8919 8.93507 47.2589 8.63703 47.7061 8.39741C48.1531 8.15786 48.7079 8.03809 49.3703 8.03809C50.0436 8.03809 50.6288 8.1913 51.1255 8.49774C51.6223 8.80417 52.006 9.23591 52.2764 9.79309C52.5469 10.3502 52.6821 11.0188 52.6821 11.7988V16.4955C52.6821 16.607 52.6435 16.7016 52.5662 16.7796C52.4889 16.8577 52.3951 16.8967 52.2847 16.8967H50.8275C50.7171 16.8967 50.6232 16.8577 50.546 16.7796C50.4687 16.7016 50.4301 16.607 50.4301 16.4955V11.8991C50.4301 11.2528 50.2727 10.7458 49.9581 10.3781C49.6435 10.0104 49.1881 9.82653 48.5919 9.82653C48.0179 9.82653 47.5598 10.0104 47.2175 10.3781C46.8753 10.7458 46.7042 11.2528 46.7042 11.8991V16.4955C46.7042 16.607 46.6656 16.7016 46.5883 16.7796C46.511 16.8577 46.4172 16.8967 46.3068 16.8967H44.8496Z" fill="#74AA00"/>
<path d="M58.4935 17.0638C57.2681 17.0638 56.2966 16.7072 55.5791 15.9941C54.8615 15.281 54.4751 14.267 54.4199 12.9521C54.4089 12.8406 54.4033 12.6986 54.4033 12.5259C54.4033 12.3531 54.4089 12.2166 54.4199 12.1164C54.464 11.2695 54.6545 10.5424 54.9912 9.93518C55.3279 9.32784 55.7943 8.85986 56.3905 8.53111C56.9866 8.20243 57.6876 8.03809 58.4935 8.03809C59.3877 8.03809 60.1384 8.22474 60.7455 8.59799C61.3527 8.97131 61.8109 9.48945 62.12 10.1524C62.4291 10.8154 62.5837 11.5815 62.5837 12.4507V12.8017C62.5837 12.9131 62.545 13.0078 62.4677 13.0858C62.3904 13.1638 62.2911 13.2028 62.1696 13.2028H56.6719V13.3365C56.683 13.7265 56.7575 14.0859 56.8955 14.4146C57.0335 14.7433 57.2377 15.0079 57.5082 15.2085C57.7787 15.4091 58.1016 15.5094 58.4769 15.5094C58.7861 15.5094 59.0454 15.462 59.2552 15.3673C59.465 15.2726 59.636 15.1639 59.7686 15.0414C59.901 14.9188 59.9949 14.8185 60.0501 14.7405C60.1494 14.6068 60.2294 14.526 60.2902 14.4982C60.3509 14.4703 60.4419 14.4564 60.5634 14.4564H61.9875C62.0979 14.4564 62.189 14.4898 62.2607 14.5567C62.3325 14.6235 62.3628 14.7071 62.3518 14.8074C62.3408 14.9857 62.2497 15.203 62.0786 15.4592C61.9074 15.7155 61.6618 15.9663 61.3417 16.2114C61.0215 16.4566 60.6213 16.6599 60.1411 16.8215C59.6609 16.983 59.1117 17.0638 58.4935 17.0638ZM56.6719 11.7988H60.3315V11.7487C60.3315 11.3141 60.2598 10.9324 60.1163 10.6037C59.9728 10.275 59.763 10.0187 59.487 9.83485C59.211 9.65099 58.8798 9.55906 58.4935 9.55906C58.1071 9.55906 57.7759 9.65099 57.4999 9.83485C57.2239 10.0187 57.0169 10.275 56.879 10.6037C56.741 10.9324 56.6719 11.3141 56.6719 11.7487V11.7988Z" fill="#74AA00"/>
<path d="M68.198 16.8967C67.5356 16.8967 66.9781 16.7797 66.5255 16.5457C66.0728 16.3117 65.7361 15.9635 65.5154 15.5011C65.2945 15.0386 65.1842 14.462 65.1842 13.7711V9.97698H63.876C63.7655 9.97698 63.6718 9.93795 63.5945 9.85994C63.5172 9.782 63.4785 9.68167 63.4785 9.5591V8.60642C63.4785 8.49497 63.5172 8.40025 63.5945 8.32224C63.6718 8.24423 63.7655 8.20526 63.876 8.20526H65.1842V5.4307C65.1842 5.31925 65.22 5.22453 65.2918 5.14652C65.3636 5.06851 65.4601 5.02954 65.5815 5.02954H66.9229C67.0333 5.02954 67.1271 5.06851 67.2044 5.14652C67.2817 5.22453 67.3203 5.31925 67.3203 5.4307V8.20526H69.3902C69.5006 8.20526 69.5944 8.24423 69.6717 8.32224C69.749 8.40025 69.7876 8.49497 69.7876 8.60642V9.5591C69.7876 9.68167 69.749 9.782 69.6717 9.85994C69.5944 9.93795 69.5006 9.97698 69.3902 9.97698H67.3203V13.604C67.3203 14.0608 67.4003 14.4174 67.5604 14.6737C67.7205 14.93 67.9993 15.0581 68.3966 15.0581H69.5393C69.6497 15.0581 69.7434 15.0972 69.8207 15.1751C69.898 15.2531 69.9367 15.3478 69.9367 15.4593V16.4956C69.9367 16.607 69.898 16.7017 69.8207 16.7797C69.7434 16.8577 69.6497 16.8967 69.5393 16.8967H68.198Z" fill="#74AA00"/>
<path d="M31.5693 19.3257C31.5958 19.3257 31.6189 19.3354 31.6382 19.355C31.6575 19.3745 31.6672 19.3977 31.6672 19.4245V19.8125C31.6672 19.8393 31.6575 19.8624 31.6382 19.8819C31.6189 19.9015 31.5958 19.9112 31.5693 19.9112H30.4852V20.4126H31.4968C31.5233 20.4126 31.5463 20.4224 31.5657 20.4419C31.585 20.4614 31.5947 20.4846 31.5947 20.5114V20.8994C31.5947 20.9262 31.585 20.9494 31.5657 20.9689C31.5463 20.9884 31.5233 20.9982 31.4968 20.9982H30.4852V21.7887C30.4852 21.8155 30.4755 21.8386 30.4562 21.8582C30.4368 21.8777 30.4139 21.8874 30.3873 21.8874H29.9124C29.8857 21.8874 29.8628 21.8777 29.8435 21.8582C29.8241 21.8386 29.8145 21.8155 29.8145 21.7887V19.4245C29.8145 19.3977 29.8241 19.3745 29.8435 19.355C29.8628 19.3354 29.8857 19.3257 29.9124 19.3257H31.5693Z" fill="#231F20"/>
<path d="M34.9666 19.2891C35.1962 19.2891 35.3944 19.333 35.5612 19.4208C35.728 19.5086 35.8567 19.6276 35.9473 19.7776C36.038 19.9277 36.0881 20.0954 36.0978 20.2808C36.1026 20.3492 36.1051 20.4589 36.1051 20.6102C36.1051 20.759 36.1026 20.8664 36.0978 20.9322C36.0881 21.1176 36.038 21.2854 35.9473 21.4355C35.8567 21.5855 35.728 21.7044 35.5612 21.7923C35.3944 21.8801 35.1962 21.924 34.9666 21.924C34.737 21.924 34.5388 21.8801 34.3719 21.7923C34.2052 21.7044 34.0765 21.5855 33.9859 21.4355C33.8952 21.2854 33.845 21.1176 33.8353 20.9322C33.8305 20.8005 33.8281 20.6931 33.8281 20.6102C33.8281 20.5272 33.8305 20.4175 33.8353 20.2808C33.845 20.0954 33.8952 19.9277 33.9859 19.7776C34.0765 19.6276 34.2052 19.5086 34.3719 19.4208C34.5388 19.333 34.737 19.2891 34.9666 19.2891ZM35.427 20.2991C35.4149 20.1698 35.3708 20.0667 35.2947 19.9899C35.2186 19.9131 35.1092 19.8746 34.9666 19.8746C34.824 19.8746 34.7146 19.9131 34.6385 19.9899C34.5623 20.0667 34.5182 20.1698 34.5061 20.2991C34.4989 20.3796 34.4953 20.4809 34.4953 20.6029C34.4953 20.7224 34.4989 20.8261 34.5061 20.9139C34.5182 21.0432 34.5623 21.1463 34.6385 21.2232C34.7146 21.3 34.824 21.3385 34.9666 21.3385C35.1092 21.3385 35.2186 21.3 35.2947 21.2232C35.3708 21.1463 35.4149 21.0432 35.427 20.9139C35.4343 20.8261 35.4379 20.7224 35.4379 20.6029C35.4379 20.4809 35.4343 20.3796 35.427 20.2991Z" fill="#231F20"/>
<path d="M40.4708 19.3257C40.4974 19.3257 40.5203 19.3354 40.5397 19.355C40.559 19.3745 40.5687 19.3977 40.5687 19.4245V20.8847C40.5687 21.1043 40.5228 21.2921 40.4309 21.4483C40.3391 21.6044 40.2104 21.7228 40.0448 21.8033C39.8793 21.8838 39.6865 21.9241 39.4665 21.9241C39.2441 21.9241 39.0501 21.8838 38.8846 21.8033C38.719 21.7228 38.5909 21.6044 38.5003 21.4483C38.4096 21.2921 38.3643 21.1043 38.3643 20.8847V19.4245C38.3643 19.3977 38.3739 19.3745 38.3933 19.355C38.4126 19.3354 38.4356 19.3257 38.4622 19.3257H38.9371C38.9637 19.3257 38.9867 19.3354 39.0061 19.355C39.0254 19.3745 39.0351 19.3977 39.0351 19.4245V20.8701C39.0351 21.0189 39.0719 21.1342 39.1456 21.2159C39.2193 21.2977 39.3263 21.3385 39.4665 21.3385C39.6067 21.3385 39.7137 21.2977 39.7874 21.2159C39.8611 21.1342 39.8979 21.0189 39.8979 20.8701V19.4245C39.8979 19.3977 39.9076 19.3745 39.9269 19.355C39.9463 19.3354 39.9692 19.3257 39.9959 19.3257H40.4708Z" fill="#231F20"/>
<path d="M44.5677 21.8874C44.5314 21.8874 44.5 21.8783 44.4734 21.86C44.4468 21.8417 44.4287 21.8228 44.419 21.8033L43.5888 20.5517V21.7887C43.5888 21.8155 43.5791 21.8386 43.5598 21.8582C43.5404 21.8777 43.5174 21.8874 43.4909 21.8874H43.0159C42.9893 21.8874 42.9663 21.8777 42.947 21.8582C42.9276 21.8386 42.918 21.8155 42.918 21.7887V19.4245C42.918 19.3977 42.9276 19.3745 42.947 19.355C42.9663 19.3354 42.9893 19.3257 43.0159 19.3257H43.393C43.4292 19.3257 43.4606 19.3349 43.4873 19.3531C43.5138 19.3715 43.5319 19.3904 43.5416 19.4099L44.3719 20.6615V19.4245C44.3719 19.3977 44.3816 19.3745 44.4009 19.355C44.4203 19.3354 44.4432 19.3257 44.4698 19.3257H44.9447C44.9714 19.3257 44.9943 19.3354 45.0136 19.355C45.033 19.3745 45.0427 19.3977 45.0427 19.4245V21.7887C45.0427 21.8155 45.033 21.8386 45.0136 21.8582C44.9943 21.8777 44.9714 21.8874 44.9447 21.8874H44.5677Z" fill="#231F20"/>
<path d="M49.556 20.3467C49.5608 20.4834 49.5633 20.5712 49.5633 20.6102C49.5633 20.6493 49.5608 20.7347 49.556 20.8664C49.5488 21.0665 49.4974 21.2433 49.4019 21.3971C49.3064 21.5507 49.1753 21.6709 49.0085 21.7576C48.8417 21.8442 48.6484 21.8874 48.4284 21.8874H47.4495C47.4229 21.8874 47.3999 21.8777 47.3806 21.8582C47.3612 21.8386 47.3516 21.8155 47.3516 21.7887V19.4245C47.3516 19.3977 47.3612 19.3745 47.3806 19.355C47.3999 19.3354 47.4229 19.3257 47.4495 19.3257H48.4103C48.6303 19.3257 48.8254 19.369 48.9959 19.4556C49.1662 19.5423 49.3004 19.663 49.3983 19.8179C49.4962 19.9728 49.5488 20.1492 49.556 20.3467ZM48.0223 19.9112V21.3019H48.4103C48.7148 21.3019 48.8731 21.1616 48.8852 20.8811C48.8901 20.7396 48.8925 20.6469 48.8925 20.6029C48.8925 20.5542 48.8901 20.4638 48.8852 20.3321C48.878 20.1931 48.8326 20.0881 48.7493 20.0174C48.6659 19.9466 48.5468 19.9112 48.3922 19.9112H48.0223Z" fill="#231F20"/>
<path d="M53.882 21.752C53.8917 21.7764 53.8965 21.7947 53.8965 21.807C53.8965 21.8289 53.8887 21.8478 53.873 21.8637C53.8573 21.8796 53.8385 21.8874 53.8168 21.8874H53.3599C53.3189 21.8874 53.2868 21.8783 53.2639 21.86C53.2409 21.8417 53.2258 21.8204 53.2186 21.796L53.1171 21.4922H52.1526L52.0511 21.796C52.0439 21.8204 52.0287 21.8417 52.0058 21.86C51.9828 21.8783 51.9508 21.8874 51.9097 21.8874H51.4528C51.4311 21.8874 51.4124 21.8796 51.3966 21.8637C51.3809 21.8478 51.373 21.8289 51.373 21.807C51.373 21.7947 51.3779 21.7764 51.3876 21.752L52.178 19.4465C52.19 19.4123 52.2094 19.3837 52.236 19.3605C52.2625 19.3373 52.2976 19.3257 52.3411 19.3257H52.9285C52.972 19.3257 53.007 19.3373 53.0336 19.3605C53.0602 19.3837 53.0795 19.4123 53.0917 19.4465L53.882 21.752ZM52.9285 20.925L52.6348 20.0467L52.3411 20.925H52.9285Z" fill="#231F20"/>
<path d="M57.9209 19.3257C57.9474 19.3257 57.9704 19.3354 57.9898 19.355C58.0091 19.3745 58.0188 19.3977 58.0188 19.4245V19.8125C58.0188 19.8393 58.0091 19.8624 57.9898 19.8819C57.9704 19.9015 57.9474 19.9112 57.9209 19.9112H57.2827V21.7887C57.2827 21.8155 57.2731 21.8386 57.2537 21.8582C57.2344 21.8777 57.2115 21.8874 57.1848 21.8874H56.7098C56.6833 21.8874 56.6603 21.8777 56.641 21.8582C56.6217 21.8386 56.612 21.8155 56.612 21.7887V19.9112H55.9739C55.9473 19.9112 55.9243 19.9015 55.905 19.8819C55.8856 19.8624 55.876 19.8393 55.876 19.8125V19.4245C55.876 19.3977 55.8856 19.3745 55.905 19.355C55.9243 19.3354 55.9473 19.3257 55.9739 19.3257H57.9209Z" fill="#231F20"/>
<path d="M60.3098 21.8874C60.2832 21.8874 60.2603 21.8777 60.2409 21.8582C60.2216 21.8386 60.2119 21.8155 60.2119 21.7887V19.4245C60.2119 19.3977 60.2216 19.3745 60.2409 19.355C60.2603 19.3354 60.2832 19.3257 60.3098 19.3257H60.7847C60.8114 19.3257 60.8343 19.3354 60.8536 19.355C60.873 19.3745 60.8827 19.3977 60.8827 19.4245V21.7887C60.8827 21.8155 60.873 21.8386 60.8536 21.8582C60.8343 21.8777 60.8114 21.8874 60.7847 21.8874H60.3098Z" fill="#231F20"/>
<path d="M64.3054 19.2891C64.5351 19.2891 64.7333 19.333 64.9 19.4208C65.0669 19.5086 65.1956 19.6276 65.2862 19.7776C65.3768 19.9277 65.427 20.0954 65.4366 20.2808C65.4415 20.3492 65.4439 20.4589 65.4439 20.6102C65.4439 20.759 65.4415 20.8664 65.4366 20.9322C65.427 21.1176 65.3768 21.2854 65.2862 21.4355C65.1956 21.5855 65.0669 21.7044 64.9 21.7923C64.7333 21.8801 64.5351 21.924 64.3054 21.924C64.0758 21.924 63.8776 21.8801 63.7108 21.7923C63.5441 21.7044 63.4153 21.5855 63.3247 21.4355C63.234 21.2854 63.1839 21.1176 63.1742 20.9322C63.1694 20.8005 63.167 20.6931 63.167 20.6102C63.167 20.5272 63.1694 20.4175 63.1742 20.2808C63.1839 20.0954 63.234 19.9277 63.3247 19.7776C63.4153 19.6276 63.5441 19.5086 63.7108 19.4208C63.8776 19.333 64.0758 19.2891 64.3054 19.2891ZM64.7659 20.2991C64.7538 20.1698 64.7097 20.0667 64.6336 19.9899C64.5575 19.9131 64.4481 19.8746 64.3054 19.8746C64.1629 19.8746 64.0535 19.9131 63.9773 19.9899C63.9012 20.0667 63.8571 20.1698 63.8449 20.2991C63.8377 20.3796 63.8341 20.4809 63.8341 20.6029C63.8341 20.7224 63.8377 20.8261 63.8449 20.9139C63.8571 21.0432 63.9012 21.1463 63.9773 21.2232C64.0535 21.3 64.1629 21.3385 64.3054 21.3385C64.4481 21.3385 64.5575 21.3 64.6336 21.2232C64.7097 21.1463 64.7538 21.0432 64.7659 20.9139C64.7731 20.8261 64.7768 20.7224 64.7768 20.6029C64.7768 20.4809 64.7731 20.3796 64.7659 20.2991Z" fill="#231F20"/>
<path d="M69.3782 21.8874C69.3419 21.8874 69.3105 21.8783 69.2839 21.86C69.2574 21.8417 69.2392 21.8228 69.2296 21.8033L68.3993 20.5517V21.7887C68.3993 21.8155 68.3896 21.8386 68.3703 21.8582C68.3509 21.8777 68.328 21.8874 68.3014 21.8874H67.8264C67.7998 21.8874 67.7769 21.8777 67.7575 21.8582C67.7382 21.8386 67.7285 21.8155 67.7285 21.7887V19.4245C67.7285 19.3977 67.7382 19.3745 67.7575 19.355C67.7769 19.3354 67.7998 19.3257 67.8264 19.3257H68.2035C68.2397 19.3257 68.2712 19.3349 68.2977 19.3531C68.3244 19.3715 68.3425 19.3904 68.3521 19.4099L69.1824 20.6615V19.4245C69.1824 19.3977 69.1921 19.3745 69.2114 19.355C69.2307 19.3354 69.2538 19.3257 69.2803 19.3257H69.7553C69.7818 19.3257 69.8049 19.3354 69.8242 19.355C69.8435 19.3745 69.8532 19.3977 69.8532 19.4245V21.7887C69.8532 21.8155 69.8435 21.8386 69.8242 21.8582C69.8049 21.8777 69.7818 21.8874 69.7553 21.8874H69.3782Z" fill="#231F20"/>
</g>
<defs>
<clipPath id="clip0_2981_64294">
<rect width="70" height="27" fill="white"/>
</clipPath>
</defs>
</svg>
